<?xml version="1.0" encoding="utf-8"?>
<!-- Generator: Adobe Illustrator 24.0.1, SVG Export Plug-In . SVG Version: 6.00 Build 0)  -->
<svg version="1.1" id="Layer_1" xmlns="http://www.w3.org/2000/svg" xmlns:xlink="http://www.w3.org/1999/xlink" x="0px" y="0px"
	 viewBox="0 0 383.5 252.7" style="enable-background:new 0 0 383.5 252.7;" xml:space="preserve">
<style type="text/css">
	.st0{fill:#FFFFFF;}
	.st1{fill:#FFB71B;}
</style>
<g id="Layer_3">
	<g>
		<g>
			<path class="st0" d="M295.7,155.2c1.5-6.3,3.4-12.1,6-17.5c2.5-5.4,5.8-10,9.8-14c4-4,8.9-7.1,14.6-9.3
				c5.7-2.3,12.5-3.4,20.4-3.4s14.1,1.1,18.9,3.4c4.7,2.3,8.1,5.4,10.3,9.3c2.2,4,3.3,8.6,3.3,14.1s-0.7,11.2-2.1,17.5l-11.7,50.7
				c-1.5,6.3-3.4,12.1-6,17.5c-2.5,5.4-5.8,10.1-9.8,14c-4,4-8.9,7.1-14.6,9.3c-5.8,2.3-12.6,3.4-20.4,3.4c-7.9,0-14.1-1.1-18.9-3.4
				c-4.7-2.3-8.1-5.4-10.3-9.3c-2.2-4-3.3-8.6-3.3-14.1s0.7-11.3,2.1-17.6L295.7,155.2z M321.1,220.8c0.1,0,0.1,0,0.1,0.1
				c0,0,0.1,0.1,0.3,0.1c2.2-0.1,4.1-0.6,5.6-1.5c1.5-0.9,2.8-2.1,3.9-3.6c1-1.4,1.9-3.1,2.5-4.8c0.7-1.8,1.2-3.5,1.6-5.2l11.7-50.7
				c0.4-1.7,0.7-3.4,0.9-5.2c0.2-1.8,0.1-3.4-0.3-4.8s-1.2-2.6-2.4-3.6c-1.2-0.9-2.9-1.4-5.3-1.4c-0.2,0-0.4,0-0.4-0.1
				c-2.2,0.1-4.1,0.6-5.6,1.5s-2.8,2.1-3.9,3.6c-1,1.4-1.9,3-2.5,4.8c-0.6,1.7-1.1,3.5-1.5,5.3l-11.7,50.6c-0.4,1.7-0.7,3.4-0.9,5.3
				s-0.1,3.4,0.3,4.9c0.4,1.4,1.1,2.6,2.3,3.6C317,220.3,318.8,220.8,321.1,220.8z"/>
			<path class="st0" d="M87.7,202l-1.1,4.9c-1.4,6.1-3.4,11.7-5.9,16.9s-5.8,9.8-9.8,13.6s-8.9,7-14.5,9.2
				c-5.7,2.2-12.4,3.3-20.2,3.3l0,0.1c-7.8,0-14.1-1.1-18.8-3.4c-4.7-2.3-8.1-5.4-10.3-9.3c-2.2-4-3.3-8.6-3.3-14.1
				s0.7-11.3,2.1-17.6l11.7-50.6c1.4-6.2,3.4-12,5.9-17.5c2.5-5.4,5.8-10.1,9.8-14.1c4-4,8.8-7.1,14.5-9.3
				c5.7-2.3,12.5-3.4,20.3-3.4l0.1-0.1c7.8,0,14.1,1.1,18.8,3.4c4.7,2.3,8.1,5.4,10.3,9.3s3.3,8.5,3.4,13.8c0.1,5.3-0.6,10.9-2,17
				l-1.1,4.6H67.5l1-4.5c0.4-1.6,0.6-3.3,0.8-4.9c0.1-1.7,0-3.2-0.4-4.6s-1.2-2.5-2.3-3.4c-1.2-0.9-2.8-1.4-5-1.4
				c-2.3,0-4.2,0.5-5.8,1.4s-2.9,2.1-4,3.5c-1.1,1.4-1.9,3-2.6,4.8c-0.6,1.8-1.2,3.6-1.6,5.4L36,205.7c-0.4,1.7-0.7,3.4-0.9,5.3
				s-0.1,3.4,0.3,4.9c0.4,1.4,1.1,2.6,2.3,3.6c1.2,0.9,2.9,1.4,5.3,1.4c2.1,0,4-0.4,5.5-1.3s2.8-1.9,3.9-3.2c1-1.3,1.9-2.8,2.6-4.5
				c0.7-1.7,1.2-3.3,1.6-5l1.1-4.8L87.7,202L87.7,202z"/>
			<path class="st0" d="M147.2,135.9l-7.3,31.7h32.3l-5.8,25.2H134l-13.1,56.9h-29l32.1-139h68.9l-5.8,25.1L147.2,135.9L147.2,135.9
				z"/>
			<path class="st0" d="M269.2,202l-1.1,4.9c-1.4,6.1-3.4,11.7-5.9,16.9s-5.8,9.8-9.8,13.6s-8.9,7-14.5,9.2
				c-5.7,2.2-12.4,3.3-20.2,3.3l0,0.1c-7.9,0-14.1-1.1-18.9-3.4c-4.7-2.3-8.1-5.4-10.3-9.3c-2.2-4-3.3-8.6-3.3-14.1
				s0.7-11.3,2.1-17.6l11.7-50.6c1.4-6.2,3.4-12,5.9-17.5c2.5-5.4,5.8-10.1,9.8-14.1c4-4,8.8-7.1,14.5-9.3
				c5.7-2.3,12.5-3.4,20.3-3.4l0.1-0.1c7.9,0,14.1,1.1,18.8,3.4c4.7,2.3,8.1,5.4,10.3,9.3s3.3,8.5,3.4,13.8c0.1,5.3-0.6,10.9-2,17
				l-1,4.6H249l1-4.5c0.4-1.6,0.6-3.3,0.8-4.9c0.1-1.7,0-3.2-0.4-4.6s-1.2-2.5-2.3-3.4c-1.2-0.9-2.9-1.4-5-1.4
				c-2.3,0-4.2,0.5-5.8,1.4s-2.9,2.1-4,3.5c-1.1,1.4-1.9,3-2.6,4.8c-0.6,1.8-1.1,3.6-1.6,5.4l-11.7,50.6c-0.4,1.7-0.7,3.4-0.9,5.3
				s-0.1,3.4,0.3,4.9c0.4,1.4,1.1,2.6,2.3,3.6c1.2,0.9,2.9,1.4,5.3,1.4c2.1,0,3.9-0.4,5.5-1.3c1.5-0.9,2.8-1.9,3.9-3.2
				c1-1.3,1.9-2.8,2.6-4.5c0.7-1.7,1.2-3.3,1.6-5l1.1-4.8L269.2,202L269.2,202z"/>
			<polygon class="st1" points="260.2,51.1 3.4,51.1 11.2,17.4 268,17.4 			"/>
			<polygon class="st1" points="366.1,96.3 70.9,96.3 83.4,42.3 378.6,42.3 			"/>
			<path class="st0" d="M114.8,61c-1.3-1.8-3.4-2.9-6.2-2.9c-5.8,0-10.8,4.7-11.7,11.3c-0.9,6.5,2.7,11.3,8.3,11.3
				c3.1,0,5.8-1.4,7.7-3.8l5.8,4.8c-3.5,4.2-8.8,6.1-13.5,6.1c-10.9,0-17.8-7.2-16.3-18.4C90.4,58.2,99.4,51,110.3,51
				c3.9,0,8.6,1.3,11.1,5.1L114.8,61z"/>
			<path class="st0" d="M149.1,51c10.9,0,17.9,7.2,16.3,18.4c-1.6,11.2-10.6,18.4-21.5,18.4c-10.9,0-17.8-7.2-16.3-18.4
				C129.2,58.2,138.2,51,149.1,51z M144.9,80.6c6.6,0,11.5-4.7,12.4-11.3c0.9-6.5-2.7-11.3-9.3-11.3s-11.6,4.7-12.4,11.3
				C134.7,75.9,138.4,80.6,144.9,80.6z"/>
			<path class="st0" d="M204.5,73.4c-1.1,8.3-7.1,14.4-16.8,14.4c-9.7,0-13.9-6.1-12.8-14.4l3.1-21.5h7.7l-3,21.2
				c-0.6,4.3,1.9,7.6,6,7.6c4.1,0,7.5-3.3,8.1-7.6l3-21.2h7.7L204.5,73.4z"/>
			<path class="st0" d="M219.6,51.9h10.5l11.4,24.3h0.1l3.5-24.3h7.7l-4.9,35h-10.1L226,62h-0.1l-3.5,24.9h-7.7L219.6,51.9z"/>
			<path class="st0" d="M270.6,58.7h-10l1-6.8h27.7l-1,6.8h-10l-4,28.2h-7.7L270.6,58.7z"/>
			<path class="st0" d="M298.1,51.9h13.5c7.2,0,12.8,2.5,11.7,10.6c-0.7,4.9-3.8,8.7-8.9,9.6l6.8,14.8H312l-5.3-14h-3.8l-2,14h-7.7
				L298.1,51.9z M303.7,66.4h4.5c2.8,0,6.5-0.1,7-3.9c0.5-3.5-2.6-4.1-5.4-4.1h-5L303.7,66.4z"/>
			<path class="st0" d="M339.9,71.9l-10.3-20.1h9.6l5.5,13.1l9.7-13.1h9.1l-16,20.1l-2.1,14.9h-7.7L339.9,71.9z"/>
			<path class="st0" d="M235.3,32.7h-2.9l2.6-6.5h3.3L235.3,32.7z"/>
			<path class="st0" d="M250.6,30.2c-0.5-0.7-1.6-1.1-2.4-1.1c-1,0-2.5,0.5-2.6,1.7c-0.4,3,7.3,1.1,6.5,6.8c-0.5,3.6-3.7,5.3-7,5.3
				c-2.1,0-3.8-0.6-5.2-2l2.9-2.8c0.6,1,1.7,1.5,2.9,1.5c1.2,0,2.5-0.5,2.7-1.7c0.4-3-7.4-1.4-6.7-6.8c0.5-3.5,3.8-5.3,6.9-5.3
				c1.8,0,3.5,0.5,4.8,1.7L250.6,30.2z"/>
			<path class="st0" d="M221.3,29.4h-4.6l0.5-3.2H230l-0.5,3.2h-4.6L223,42.5h-3.6L221.3,29.4z"/>
			<path class="st0" d="M197.6,26.2h4.9l5.3,11.3h0.1l1.6-11.3h3.6l-2.3,16.3H206l-5.5-11.6h-0.1l-1.6,11.6h-3.6L197.6,26.2z"/>
			<path class="st0" d="M180.9,26.2H192l-0.5,3.3H184l-0.4,3h7.1l-0.5,3.3h-7.1l-0.5,3.3h7.9l-0.5,3.3h-11.5L180.9,26.2z"/>
			<path class="st0" d="M162.1,26.2h3.6l-1,6.8l7.3-6.8h4.7l-8.3,7.6l6.6,8.7h-5l-5.5-7.7l-1.1,7.7h-3.6L162.1,26.2z"/>
			<path class="st0" d="M156.2,35.6h-5.6l0.4-2.8h5.6L156.2,35.6z"/>
			<path class="st0" d="M128.8,26.2h5.4l2.3,10.6h0.1l5.3-10.6h5.4l-2.3,16.3h-3.6l1.8-12.5H143l-6,12.5h-2.7L131.9,30h-0.1
				l-1.8,12.5h-3.6L128.8,26.2z"/>
			<path class="st0" d="M114.9,26.2h3l4.8,16.3h-4l-0.9-3.5h-6.3l-1.8,3.5h-3.9L114.9,26.2z M115.6,31l-2.7,5.1h4L115.6,31z"/>
			<path class="st0" d="M89.8,26.2h3.6l-0.9,6.1h7l0.9-6.1h3.6l-2.3,16.3H98l1-7h-7l-1,7h-3.6L89.8,26.2z"/>
			<path class="st0" d="M77,29.4h-4.6l0.5-3.2h12.9l-0.5,3.2h-4.6l-1.8,13.1h-3.6L77,29.4z"/>
			<path class="st0" d="M62.4,26.2h3l4.8,16.3h-4L65.2,39h-6.3l-1.8,3.5h-3.9L62.4,26.2z M63.2,31L60.5,36h4L63.2,31z"/>
			<path class="st0" d="M37.3,26.2h3.6l-0.9,6.1h7l0.9-6.1h3.6l-2.3,16.3h-3.6l1-7h-7l-1,7h-3.6L37.3,26.2z"/>
			<path class="st0" d="M29.4,30.4c-0.6-0.8-1.6-1.3-2.9-1.3c-2.7,0-5,2.2-5.5,5.2c-0.4,3,1.3,5.2,3.9,5.2c1.5,0,2.7-0.6,3.6-1.8
				l2.7,2.2c-1.6,1.9-4.1,2.8-6.3,2.8c-5.1,0-8.3-3.3-7.6-8.5s4.9-8.5,10-8.5c1.8,0,4,0.6,5.2,2.4L29.4,30.4z"/>
			<path class="st0" d="M291.3,22.5c-0.7,0.2-1.4,0.3-2.1,0.3c-5.7,0-8.9-4.4-8.1-9.9c0.9-6.2,6.4-10.4,12.7-10.4s10.7,4.1,9.8,10.4
				c-0.6,4.4-2.7,7-5,10l-8.1,10.3h-7.8L291.3,22.5z M291.7,18c2.9,0,5.1-2,5.5-4.7s-1.3-4.7-4.2-4.7s-5.2,2-5.5,4.7
				C287,16,288.8,18,291.7,18z"/>
			<path class="st0" d="M307.1,26.5L320.3,16c1.4-1.1,3-2.4,3.3-4.2c0.3-2-1.3-3.3-3.3-3.3c-2.4,0-4,1.7-4.5,3.8l-6.3-0.5
				c1.2-6.2,6-9.3,12-9.3c5.5,0,9.4,3,8.5,9.1c-0.6,3.9-2.5,6.1-5.1,8.1l-10.3,7.9H328l-0.8,5.6h-21.1L307.1,26.5z"/>
			<rect x="333.5" y="16.2" class="st0" width="5.6" height="5.6"/>
			<path class="st0" d="M353.5,22.5c-0.7,0.2-1.4,0.3-2.1,0.3c-5.7,0-8.9-4.4-8.1-9.9c0.9-6.2,6.4-10.4,12.7-10.4s10.7,4.1,9.8,10.4
				c-0.6,4.4-2.7,7-5,10l-8.1,10.3h-7.8L353.5,22.5z M353.9,18c2.9,0,5.1-2,5.5-4.7s-1.3-4.7-4.2-4.7s-5.2,2-5.5,4.7
				C349.3,16,351,18,353.9,18z"/>
		</g>
	</g>
</g>
</svg>
