<?xml version="1.0" encoding="utf-8"?>
<!-- Generator: Adobe Illustrator 23.0.3, SVG Export Plug-In . SVG Version: 6.00 Build 0)  -->
<svg version="1.1" id="Layer_7" xmlns="http://www.w3.org/2000/svg" xmlns:xlink="http://www.w3.org/1999/xlink" x="0px" y="0px"
	 width="401px" height="242.2px" viewBox="0 0 401 242.2" style="enable-background:new 0 0 401 242.2;" xml:space="preserve">
<style type="text/css">
	.st0{fill:#FFFFFF;}
	.st1{fill:#026CAD;}
</style>
<g>
	<g>
		<path class="st0" d="M84,194.1l-1.1,4.9c-1.4,6.1-3.4,11.7-5.9,16.9c-2.5,5.2-5.8,9.8-9.8,13.6s-8.9,6.9-14.5,9.2
			c-5.7,2.2-12.4,3.3-20.2,3.3l0,0.1c-7.9,0-14.1-1.1-18.8-3.4c-4.7-2.3-8.2-5.4-10.3-9.3c-2.2-4-3.3-8.6-3.3-14.1
			s0.7-11.3,2.1-17.6l11.7-50.6c1.4-6.2,3.4-12,5.9-17.5c2.5-5.4,5.8-10.1,9.8-14.1s8.8-7.1,14.5-9.3c5.7-2.3,12.5-3.4,20.3-3.4
			l0.1-0.1c7.9,0,14.1,1.1,18.8,3.4c4.7,2.3,8.1,5.4,10.3,9.3c2.2,3.9,3.3,8.5,3.4,13.8c0.1,5.3-0.6,11-2,17l-1.1,4.6H63.8l1-4.5
			c0.4-1.6,0.6-3.3,0.8-4.9s0-3.2-0.4-4.6s-1.2-2.5-2.3-3.5c-1.2-0.9-2.9-1.4-5-1.4c-2.3,0-4.2,0.5-5.8,1.4s-2.9,2.1-4,3.5
			c-1.1,1.4-1.9,3-2.6,4.8c-0.6,1.8-1.1,3.6-1.6,5.4l-11.7,50.6c-0.4,1.7-0.7,3.5-0.9,5.3s-0.1,3.4,0.3,4.9c0.4,1.5,1.1,2.6,2.3,3.5
			c1.2,0.9,2.9,1.4,5.3,1.4c2.1,0,3.9-0.4,5.5-1.3c1.5-0.9,2.8-1.9,3.9-3.2c1-1.3,1.9-2.8,2.6-4.5c0.7-1.7,1.2-3.3,1.6-5l1.1-4.8
			L84,194.1L84,194.1z"/>
		<path class="st0" d="M86.5,241.8L118,105.3h30.1l-12.1,52.5h24.2l12.1-52.5h30l-31.5,136.5h-30l12.7-54.9h-24.2l-12.7,54.9H86.5z"
			/>
		<path class="st0" d="M206.7,147.2c1.5-6.3,3.4-12.1,6-17.5s5.8-10,9.8-14c4-4,8.9-7.1,14.6-9.3c5.7-2.3,12.5-3.4,20.4-3.4
			s14.1,1.1,18.9,3.4c4.7,2.3,8.1,5.4,10.3,9.3s3.3,8.6,3.3,14.1s-0.7,11.2-2.1,17.5l-11.7,50.7c-1.5,6.3-3.4,12.1-6,17.5
			s-5.8,10-9.8,14c-4,4-8.9,7.1-14.6,9.3c-5.8,2.3-12.6,3.4-20.4,3.4c-7.9,0-14.1-1.1-18.9-3.4c-4.7-2.3-8.1-5.4-10.3-9.3
			c-2.2-4-3.3-8.6-3.3-14.1s0.7-11.3,2.1-17.6L206.7,147.2z M232.1,212.9c0.1,0,0.1,0,0.1,0c0,0,0.1,0,0.3,0
			c2.2-0.1,4.1-0.6,5.6-1.5c1.5-0.9,2.8-2.1,3.9-3.5c1-1.5,1.9-3.1,2.5-4.8c0.7-1.8,1.2-3.5,1.6-5.2l11.7-50.7
			c0.4-1.7,0.7-3.4,0.9-5.2c0.2-1.8,0.1-3.4-0.3-4.8c-0.4-1.5-1.2-2.6-2.4-3.6c-1.2-0.9-2.9-1.4-5.3-1.4c-0.2,0-0.4,0-0.4-0.1
			c-2.2,0.1-4.1,0.6-5.6,1.5c-1.5,0.9-2.8,2.1-3.9,3.6c-1,1.5-1.9,3-2.5,4.8c-0.6,1.7-1.1,3.5-1.5,5.3l-11.7,50.6
			c-0.4,1.7-0.7,3.5-0.9,5.3s-0.1,3.4,0.3,4.9s1.1,2.6,2.3,3.5C228,212.4,229.7,212.9,232.1,212.9z"/>
		<path class="st0" d="M279.9,241.8l31.5-136.5h30.1l-12.1,52.5h7.1l32.5-52.4H401L361.1,171l10.1,70.8h-32l-8.5-54.9h-8l-12.7,54.9
			L279.9,241.8L279.9,241.8z"/>
	</g>
	<polygon class="st1" points="285.8,37.3 291.6,12.4 7.9,12.4 0.1,46.1 103.7,46.1 93.2,91.3 388.4,91.3 400.9,37.3 	"/>
	<g>
		<path class="st0" d="M137.1,56c-1.3-1.8-3.4-2.9-6.2-2.9c-5.8,0-10.8,4.7-11.7,11.3c-0.9,6.5,2.7,11.3,8.3,11.3
			c3.1,0,5.8-1.4,7.7-3.8l5.8,4.8c-3.5,4.1-8.8,6.1-13.5,6.1c-10.9,0-17.8-7.2-16.3-18.4c1.6-11.2,10.5-18.4,21.4-18.4
			c3.9,0,8.6,1.3,11.1,5.1L137.1,56z"/>
		<path class="st0" d="M171.4,46c10.9,0,17.9,7.2,16.3,18.4c-1.6,11.2-10.6,18.4-21.5,18.4c-10.9,0-17.8-7.2-16.3-18.4
			C151.5,53.1,160.5,46,171.4,46z M167.2,75.6c6.6,0,11.5-4.7,12.5-11.3c0.9-6.5-2.7-11.3-9.3-11.3s-11.6,4.7-12.5,11.3
			C157,70.9,160.7,75.6,167.2,75.6z"/>
		<path class="st0" d="M226.8,68.4c-1.1,8.3-7.1,14.4-16.8,14.4c-9.7,0-13.9-6.1-12.8-14.4l3.1-21.5h7.7l-3,21.2
			c-0.6,4.3,1.9,7.6,6,7.6c4,0,7.5-3.3,8-7.6l3-21.2h7.7L226.8,68.4z"/>
		<path class="st0" d="M241.9,46.9h10.5l11.4,24.3h0.1l3.5-24.3h7.7l-4.9,35H260L248.3,57h-0.1l-3.5,24.9H237L241.9,46.9z"/>
		<path class="st0" d="M292.9,53.7h-10l1-6.8h27.7l-1,6.8h-10l-4,28.2h-7.7L292.9,53.7z"/>
		<path class="st0" d="M320.4,46.9H334c7.2,0,12.8,2.5,11.7,10.6c-0.7,4.9-3.8,8.7-8.9,9.6l6.8,14.8h-9.2l-5.3-14h-3.8l-2,14h-7.7
			L320.4,46.9z M326,61.4h4.5c2.8,0,6.5-0.1,7-3.9c0.5-3.5-2.6-4-5.4-4h-5L326,61.4z"/>
		<path class="st0" d="M362.2,66.9l-10.3-20.1h9.6l5.5,13.1l9.7-13.1h9.1l-16,20.1l-2.1,14.9h-7.7L362.2,66.9z"/>
	</g>
	<g>
		<path class="st0" d="M23.5,25.2c-0.5-0.7-1.6-1.1-2.4-1.1c-1,0-2.5,0.5-2.6,1.7c-0.4,3,7.3,1.1,6.5,6.8c-0.5,3.6-3.7,5.4-7,5.4
			c-2.1,0-3.8-0.6-5.2-2l2.9-2.8c0.6,1,1.7,1.5,2.9,1.5c1.2,0,2.6-0.5,2.7-1.7c0.4-3-7.4-1.4-6.7-6.8c0.5-3.5,3.7-5.3,6.9-5.3
			c1.8,0,3.5,0.5,4.8,1.7L23.5,25.2z"/>
		<path class="st0" d="M36.9,21.2h3l4.8,16.3h-4L39.7,34h-6.3l-1.8,3.5h-3.9L36.9,21.2z M37.6,26L34.9,31h4L37.6,26z"/>
		<path class="st0" d="M50.8,21.2h6.3c3.3,0,5.9,1.1,5.4,4.9c-0.3,2.3-1.8,4-4.1,4.5l3.2,6.9h-4.3L54.8,31H53l-0.9,6.5h-3.6
			L50.8,21.2z M53.5,28h2.1c1.3,0,3,0,3.3-1.8c0.2-1.6-1.2-1.9-2.5-1.9H54L53.5,28z"/>
		<path class="st0" d="M68,21.2h4.9l5.3,11.3h0.1l1.6-11.3h3.6l-2.3,16.3h-4.7L71,25.9h-0.1l-1.6,11.6h-3.6L68,21.2z"/>
		<path class="st0" d="M89,21.2h3.6l-2.3,16.3h-3.6L89,21.2z"/>
		<path class="st0" d="M103.5,21.2h3l4.8,16.3h-4l-0.9-3.5H100l-1.8,3.5h-3.9L103.5,21.2z M104.2,26l-2.7,5.1h4L104.2,26z"/>
		<path class="st0" d="M126.7,21.2h3.6l-1.8,13h6.6l-0.5,3.3h-10.2L126.7,21.2z"/>
		<path class="st0" d="M146.5,21.2h3l4.8,16.3h-4l-0.9-3.5H143l-1.8,3.5h-3.9L146.5,21.2z M147.3,26l-2.7,5.1h4L147.3,26z"/>
		<path class="st0" d="M160.5,21.2h5.4l2.3,10.6h0l5.3-10.6h5.4l-2.3,16.3H173l1.8-12.5h0l-6,12.5H166L163.6,25h0l-1.8,12.5h-3.6
			L160.5,21.2z"/>
		<path class="st0" d="M184.5,21.2h6.1c2.9,0,5.9,0.6,5.4,4.1c-0.3,1.8-1.5,3.1-3.3,3.6v0c2.1,0.3,3.3,1.9,3,4
			c-0.5,3.4-3.9,4.5-6.8,4.5h-6.7L184.5,21.2z M186.2,34.5h3.2c1.1,0,2.5-0.5,2.6-1.9c0.2-1.5-1.5-1.8-2.6-1.8h-2.7L186.2,34.5z
			 M187.2,27.7h2.6c1.1,0,2.3-0.5,2.5-1.8c0.2-1.4-1.1-1.7-2.2-1.7h-2.4L187.2,27.7z"/>
		<path class="st0" d="M204.4,24.4h-4.6l0.5-3.2h12.9l-0.5,3.2H208l-1.8,13.1h-3.6L204.4,24.4z"/>
		<path class="st0" d="M225.1,20.8c5.1,0,8.3,3.3,7.6,8.5c-0.7,5.2-4.9,8.5-10,8.5s-8.3-3.3-7.6-8.5S220,20.8,225.1,20.8z
			 M223.2,34.6c3.1,0,5.4-2.2,5.8-5.2c0.4-3-1.3-5.2-4.3-5.2s-5.4,2.2-5.8,5.2C218.4,32.4,220.1,34.6,223.2,34.6z"/>
		<path class="st0" d="M238.6,21.2h4.9l5.3,11.3h0l1.6-11.3h3.6l-2.3,16.3H247l-5.5-11.6h0l-1.6,11.6h-3.6L238.6,21.2z"/>
		<path class="st0" d="M260.9,27.7h-2.9l2.6-6.5h3.3L260.9,27.7z"/>
		<path class="st0" d="M276.2,25.2c-0.5-0.7-1.6-1.1-2.4-1.1c-1,0-2.5,0.5-2.6,1.7c-0.4,3,7.3,1.1,6.5,6.8c-0.5,3.6-3.7,5.4-7,5.4
			c-2.1,0-3.8-0.6-5.2-2l2.9-2.8c0.6,1,1.7,1.5,2.9,1.5c1.2,0,2.5-0.5,2.7-1.7c0.4-3-7.4-1.4-6.7-6.8c0.5-3.5,3.8-5.3,6.9-5.3
			c1.8,0,3.5,0.5,4.8,1.7L276.2,25.2z"/>
	</g>
	<g>
		<path class="st0" d="M307.1,7.2L303,9.9L300.2,6l8-5.5h5.6l-4,28.2h-5.7L307.1,7.2z"/>
		<path class="st0" d="M328.8,0c8.4,0,9.4,7.9,8.4,14.6c-1,6.7-4.2,14.6-12.5,14.6s-9.4-7.9-8.4-14.6C317.2,7.9,320.5,0,328.8,0z
			 M325.5,23.6c4.3,0,5.3-6.1,5.8-9.1c0.4-2.9,1.1-9.1-3.2-9.1c-4.3,0-5.4,6.1-5.8,9.1C321.9,17.5,321.2,23.6,325.5,23.6z"/>
		<path class="st0" d="M348.8,11.6h2c2.2,0,4.6-0.5,5-3.1c0.2-1.7-1.1-2.9-3.1-2.9c-1.9,0-3.3,1.1-3.9,2.6l-6.4-1.4
			c2-4.9,6.2-6.8,11-6.8c5,0,9.2,2.4,8.4,7.8c-0.4,3.1-2.5,5.5-5.7,6.2l0,0.1c3.3,0.4,4.9,3.3,4.4,6.6c-0.8,5.6-5.8,8.4-11.3,8.4
			c-5,0-8.6-2.2-9.1-7.3l6.5-1.5c0.1,2,1.2,3.3,3.7,3.3c2.6,0,4-1.5,4.3-3.6c0.5-3.2-2.4-3.3-5.1-3.3h-1.4L348.8,11.6z"/>
		<path class="st0" d="M380.8,18.6c-0.7,0.2-1.3,0.3-2,0.3c-5.3,0-8.3-4.1-7.6-9.2c0.8-5.8,6-9.7,11.9-9.7c5.9,0,10,3.9,9.1,9.7
			c-0.6,4.1-2.5,6.5-4.7,9.4l-7.5,9.6h-7.3L380.8,18.6z M381.2,14.3c2.7,0,4.8-1.9,5.1-4.4c0.4-2.5-1.2-4.4-3.9-4.4
			c-2.7,0-4.8,1.9-5.2,4.4C376.9,12.5,378.5,14.3,381.2,14.3z"/>
		<rect x="363.5" y="11.8" class="st0" width="4.9" height="4.9"/>
	</g>
</g>
</svg>
