<svg id="svg" version="1.1" xmlns="http://www.w3.org/2000/svg" xmlns:xlink="http://www.w3.org/1999/xlink" width="400" height="400" viewBox="0, 0, 400,400"><g id="svgg"><path id="path0" d="M7.200 91.800 C 7.200 92.570,7.020 93.200,6.800 93.200 C 6.580 93.200,6.400 93.920,6.400 94.800 C 6.400 95.680,6.238 96.400,6.041 96.400 C 5.843 96.400,5.555 97.660,5.400 99.200 C 5.245 100.740,4.957 102.000,4.759 102.000 C 4.562 102.000,4.400 102.720,4.400 103.600 C 4.400 104.480,4.241 105.200,4.047 105.200 C 3.852 105.200,3.568 106.368,3.415 107.796 C 3.262 109.223,2.971 110.494,2.769 110.619 C 2.566 110.745,2.400 111.456,2.400 112.200 C 2.400 112.944,2.238 113.653,2.039 113.776 C 1.841 113.898,1.549 115.124,1.391 116.499 C 1.233 117.875,0.964 119.090,0.794 119.200 C 0.624 119.310,0.354 120.795,0.195 122.500 L -0.094 125.600 51.153 125.600 L 102.400 125.600 102.400 126.720 C 102.400 127.336,102.221 128.019,102.002 128.238 C 101.784 128.456,101.488 129.752,101.346 131.118 C 101.203 132.483,100.932 133.600,100.743 133.600 C 100.554 133.600,100.400 134.219,100.400 134.976 C 100.400 135.733,100.230 136.458,100.023 136.586 C 99.816 136.714,99.523 138.074,99.372 139.609 C 99.220 141.144,98.940 142.400,98.748 142.400 C 98.557 142.400,98.400 142.994,98.400 143.720 C 98.400 144.446,98.216 145.224,97.992 145.448 C 97.767 145.673,97.471 147.059,97.334 148.528 C 97.197 149.998,96.930 151.200,96.742 151.200 C 96.554 151.200,96.400 151.794,96.400 152.520 C 96.400 153.246,96.221 154.019,96.002 154.238 C 95.784 154.456,95.488 155.752,95.346 157.118 C 95.203 158.483,94.932 159.600,94.743 159.600 C 94.554 159.600,94.400 160.219,94.400 160.976 C 94.400 161.733,94.230 162.458,94.023 162.586 C 93.816 162.714,93.523 164.074,93.372 165.609 C 93.220 167.144,92.940 168.400,92.748 168.400 C 92.557 168.400,92.400 168.850,92.400 169.400 L 92.400 170.400 240.380 170.400 L 388.360 170.400 388.633 167.991 C 388.783 166.666,389.062 165.486,389.253 165.367 C 389.444 165.249,389.600 164.634,389.600 164.000 C 389.600 163.366,389.762 162.747,389.959 162.625 C 390.157 162.503,390.445 161.142,390.600 159.602 C 390.755 158.061,391.043 156.800,391.241 156.800 C 391.438 156.800,391.600 156.181,391.600 155.424 C 391.600 154.667,391.756 153.951,391.947 153.833 C 392.138 153.714,392.422 152.491,392.578 151.113 C 392.734 149.735,393.005 148.426,393.180 148.204 C 393.519 147.776,393.675 147.099,394.489 142.531 C 394.770 140.954,395.135 139.529,395.300 139.365 C 395.465 139.201,395.600 138.567,395.600 137.957 C 395.600 137.347,395.762 136.747,395.959 136.625 C 396.157 136.503,396.445 135.142,396.600 133.602 C 396.755 132.061,397.043 130.800,397.241 130.800 C 397.438 130.800,397.600 130.181,397.600 129.424 C 397.600 128.667,397.756 127.951,397.947 127.833 C 398.138 127.714,398.422 126.491,398.578 125.113 C 398.734 123.735,399.032 122.403,399.240 122.152 C 399.447 121.902,399.730 120.235,399.868 118.448 L 400.119 115.200 354.220 115.200 L 308.321 115.200 308.607 112.700 C 308.764 111.325,309.052 110.140,309.246 110.067 C 309.441 109.993,309.600 109.228,309.600 108.367 C 309.600 107.505,309.766 106.800,309.968 106.800 C 310.171 106.800,310.462 105.627,310.615 104.194 C 310.769 102.761,311.053 101.491,311.247 101.371 C 311.441 101.251,311.600 100.533,311.600 99.776 C 311.600 99.019,311.762 98.400,311.959 98.400 C 312.157 98.400,312.445 97.139,312.600 95.598 C 312.755 94.058,313.043 92.697,313.241 92.575 C 313.438 92.453,313.600 91.913,313.600 91.376 L 313.600 90.400 160.400 90.400 L 7.200 90.400 7.200 91.800 M106.648 101.277 C 107.391 102.019,105.493 104.184,104.400 103.841 C 104.070 103.737,103.430 103.539,102.977 103.400 C 100.208 102.550,99.939 105.631,102.699 106.572 C 109.435 108.867,105.054 117.100,98.095 115.225 C 95.621 114.560,95.237 113.823,96.612 112.387 C 97.672 111.282,97.806 111.243,98.659 111.802 C 100.211 112.819,102.800 112.305,102.800 110.980 C 102.800 110.310,100.544 108.804,99.536 108.801 C 97.277 108.796,96.284 105.078,97.933 102.800 C 99.599 100.498,104.937 99.565,106.648 101.277 M190.346 101.561 C 195.316 105.100,192.400 113.830,185.789 115.202 C 179.102 116.591,175.081 111.178,178.193 104.979 C 180.295 100.792,186.726 98.984,190.346 101.561 M276.721 101.544 C 281.614 105.028,278.735 113.843,272.266 115.186 C 265.784 116.532,261.601 111.356,264.358 105.400 C 266.426 100.934,272.990 98.887,276.721 101.544 M298.740 100.839 C 300.257 101.368,300.325 101.955,299.016 103.185 C 298.123 104.023,297.916 104.062,296.798 103.599 C 293.124 102.077,292.491 105.136,296.141 106.773 C 302.925 109.817,296.988 117.758,290.100 114.851 C 288.511 114.181,288.418 113.159,289.844 112.037 C 290.786 111.296,290.970 111.274,291.733 111.808 C 292.913 112.635,294.544 112.546,295.393 111.608 C 296.321 110.582,295.726 109.790,293.538 109.134 C 291.346 108.477,290.000 107.126,290.000 105.581 C 290.000 101.892,294.600 99.396,298.740 100.839 M22.298 102.700 C 22.545 103.745,22.957 105.546,23.214 106.701 C 23.877 109.690,24.011 109.616,26.319 104.975 L 28.395 100.800 30.798 100.800 C 33.531 100.800,33.428 100.593,32.788 104.800 C 32.570 106.230,32.207 108.840,31.981 110.600 C 31.399 115.128,31.364 115.200,29.797 115.200 C 28.092 115.200,27.896 114.861,28.361 112.726 C 28.567 111.777,28.844 109.740,28.976 108.200 L 29.217 105.400 26.908 110.000 C 24.418 114.964,24.248 115.185,22.915 115.194 C 21.946 115.201,21.634 114.386,20.802 109.675 C 19.862 104.356,19.689 104.504,18.797 111.388 C 18.328 115.008,18.144 115.314,16.549 115.131 C 15.190 114.976,15.113 114.093,15.967 108.400 C 16.248 106.530,16.572 104.055,16.688 102.900 L 16.899 100.800 19.374 100.800 L 21.849 100.800 22.298 102.700 M40.801 101.300 C 40.803 102.592,39.111 113.505,38.786 114.300 C 38.377 115.299,36.224 115.598,35.911 114.700 C 35.764 114.276,36.245 110.331,37.399 102.500 C 37.650 100.795,40.798 99.684,40.801 101.300 M54.406 101.541 C 59.070 104.019,58.498 110.834,53.374 113.836 C 51.424 114.979,44.001 115.773,43.460 114.897 C 43.250 114.558,44.039 108.102,45.023 102.100 L 45.236 100.800 49.124 100.800 C 52.140 100.800,53.325 100.966,54.406 101.541 M64.157 101.433 C 64.291 101.782,64.517 103.582,64.659 105.433 C 64.988 109.709,65.203 109.660,67.459 104.800 L 69.315 100.800 70.831 100.800 C 72.552 100.800,72.505 100.714,73.216 105.200 C 73.833 109.094,74.199 109.795,74.784 108.200 C 75.026 107.540,75.779 105.605,76.457 103.900 L 77.690 100.800 79.245 100.800 C 81.196 100.800,81.307 100.199,77.900 108.095 C 74.174 116.730,72.370 117.733,71.312 111.757 C 71.043 110.241,70.720 108.415,70.594 107.700 C 70.268 105.860,69.732 106.081,68.653 108.500 C 65.694 115.129,65.656 115.184,63.957 115.194 C 62.964 115.200,62.889 115.049,62.412 112.100 C 62.136 110.395,61.661 107.491,61.355 105.648 C 60.543 100.744,60.531 100.800,62.357 100.800 C 63.409 100.800,63.993 101.006,64.157 101.433 M93.635 102.100 L 93.370 103.400 90.185 103.600 L 87.000 103.800 86.875 105.100 L 86.749 106.400 89.508 106.400 C 92.678 106.400,92.818 106.473,92.432 107.925 C 92.161 108.943,91.989 109.011,89.200 109.200 C 86.411 109.389,86.239 109.457,85.968 110.475 C 85.578 111.943,85.700 112.000,89.267 112.000 C 92.599 112.000,93.004 112.360,92.157 114.567 C 91.884 115.278,82.655 115.536,82.228 114.845 C 82.107 114.649,82.456 111.454,83.003 107.745 C 83.551 104.035,83.999 100.955,83.999 100.900 C 84.000 100.845,86.227 100.800,88.949 100.800 L 93.899 100.800 93.635 102.100 M121.200 101.957 C 121.200 103.271,120.643 103.600,118.419 103.600 C 116.938 103.600,116.899 103.638,116.683 105.300 C 115.278 116.098,115.530 115.277,113.666 115.122 C 112.489 115.024,112.209 114.842,112.244 114.200 C 112.287 113.417,112.990 108.077,113.443 105.100 L 113.670 103.600 111.859 103.600 C 109.796 103.600,109.592 103.424,109.883 101.898 L 110.093 100.800 115.647 100.800 L 121.200 100.800 121.200 101.957 M134.252 101.700 C 134.119 102.195,134.008 102.825,134.005 103.100 C 134.002 103.458,133.092 103.600,130.808 103.600 C 127.756 103.600,127.604 103.643,127.370 104.577 C 126.983 106.117,127.457 106.400,130.424 106.400 C 133.323 106.400,133.435 106.484,132.952 108.284 C 132.738 109.084,132.425 109.179,129.658 109.284 L 126.600 109.400 126.476 110.683 L 126.352 111.967 129.676 112.083 C 132.956 112.198,132.999 112.213,132.895 113.200 C 132.686 115.201,132.689 115.200,127.613 115.200 L 122.800 115.200 122.800 113.852 C 122.800 113.111,123.055 110.996,123.367 109.152 C 123.678 107.309,124.056 104.675,124.206 103.300 L 124.479 100.800 129.486 100.800 C 134.484 100.800,134.493 100.802,134.252 101.700 M147.571 101.385 C 150.040 102.662,149.516 107.738,146.828 108.591 C 145.758 108.931,145.785 109.491,147.000 112.238 C 148.290 115.155,148.281 115.200,146.449 115.200 C 144.658 115.200,144.371 114.918,143.392 112.200 C 142.735 110.376,141.868 109.200,141.180 109.200 C 141.033 109.200,140.682 110.550,140.400 112.200 L 139.887 115.200 138.343 115.200 C 137.287 115.200,136.800 115.023,136.800 114.640 C 136.800 113.977,138.313 103.492,138.639 101.900 L 138.864 100.800 142.652 100.800 C 145.194 100.800,146.812 100.992,147.571 101.385 M160.006 105.413 C 162.468 110.749,162.519 110.747,163.191 105.269 C 163.727 100.903,163.882 100.651,165.889 100.872 L 167.055 101.000 166.119 107.600 C 164.954 115.812,165.216 115.200,162.857 115.200 C 160.641 115.200,161.229 115.974,157.689 108.400 C 156.100 105.000,156.148 104.954,155.254 110.726 L 154.591 115.000 153.052 115.127 L 151.513 115.253 151.793 112.327 C 151.946 110.717,152.218 108.680,152.397 107.800 C 152.575 106.920,152.843 104.985,152.992 103.500 L 153.264 100.800 155.571 100.800 L 157.877 100.800 160.006 105.413 M203.893 105.241 C 206.251 110.213,206.574 110.347,206.960 106.511 C 207.543 100.717,207.510 100.800,209.251 100.800 C 211.025 100.800,211.129 101.196,210.418 105.233 C 210.208 106.425,209.837 108.840,209.593 110.600 C 208.930 115.375,209.037 115.200,206.779 115.200 L 204.812 115.200 202.598 110.542 C 200.019 105.116,199.987 105.118,199.200 110.725 L 198.600 115.000 197.242 115.130 C 195.303 115.315,195.269 115.078,196.261 108.310 C 196.753 104.949,197.166 101.885,197.178 101.500 C 197.196 100.915,197.579 100.802,199.500 100.814 L 201.800 100.827 203.893 105.241 M225.235 102.100 C 224.983 103.340,224.877 103.406,222.939 103.519 L 220.907 103.638 220.670 105.519 C 219.397 115.639,219.528 115.200,217.773 115.200 C 216.563 115.200,216.253 114.944,216.319 114.000 C 216.327 113.890,216.618 111.609,216.967 108.932 C 217.315 106.255,217.600 103.960,217.600 103.832 C 217.600 103.704,216.820 103.600,215.867 103.600 C 213.777 103.600,213.690 103.529,213.914 102.002 L 214.091 100.800 219.795 100.800 L 225.499 100.800 225.235 102.100 M236.066 107.400 C 238.463 115.438,238.457 115.280,236.333 115.123 C 234.826 115.012,234.622 114.867,234.199 113.600 C 233.735 112.211,233.712 112.199,231.130 112.083 L 228.529 111.966 227.459 113.583 C 226.549 114.958,226.180 115.200,224.994 115.200 C 223.074 115.200,223.097 115.127,227.456 107.503 L 231.311 100.758 232.734 100.879 L 234.157 101.000 236.066 107.400 M251.971 101.385 C 254.440 102.662,253.916 107.738,251.228 108.591 C 250.159 108.930,250.185 109.459,251.396 112.060 C 252.764 114.999,252.715 115.200,250.635 115.200 L 248.870 115.200 247.801 112.403 C 246.226 108.281,245.378 108.182,244.852 112.057 C 244.480 114.799,244.218 115.200,242.800 115.200 C 241.226 115.200,241.052 114.741,241.541 111.873 C 241.773 110.513,242.167 107.870,242.417 106.000 C 243.193 100.196,242.658 100.800,247.027 100.800 C 249.591 100.800,251.210 100.992,251.971 101.385 M260.766 102.100 C 260.747 102.815,260.342 106.010,259.866 109.200 L 259.000 115.000 257.500 115.124 C 255.659 115.277,255.684 115.588,256.858 107.100 L 257.729 100.800 259.265 100.800 C 260.737 100.800,260.799 100.853,260.766 102.100 M286.667 102.700 C 285.088 106.044,284.814 106.400,283.810 106.400 C 282.406 106.400,282.374 106.067,283.513 103.300 C 284.518 100.856,284.575 100.800,286.052 100.800 L 287.563 100.800 286.667 102.700 M183.628 103.884 C 179.372 106.106,179.692 112.400,184.062 112.400 C 187.019 112.400,189.231 110.172,189.273 107.153 C 189.314 104.148,186.380 102.449,183.628 103.884 M269.516 104.059 C 265.274 106.576,266.436 112.816,271.050 112.296 C 275.086 111.841,277.304 106.941,274.617 104.416 C 273.264 103.145,271.288 103.007,269.516 104.059 M48.258 103.906 C 48.093 104.174,47.741 106.038,46.977 110.700 L 46.764 112.000 48.602 112.000 C 54.297 112.000,56.486 104.917,51.122 103.844 C 49.477 103.515,48.486 103.537,48.258 103.906 M141.402 104.790 C 140.971 106.753,142.104 107.349,144.519 106.431 C 146.842 105.548,146.060 103.600,143.383 103.600 C 141.801 103.600,141.643 103.695,141.402 104.790 M245.899 104.880 C 245.696 106.243,246.083 106.783,247.274 106.794 C 250.525 106.823,251.161 103.888,247.948 103.680 C 246.130 103.562,246.093 103.584,245.899 104.880 M230.876 107.150 C 229.739 109.174,229.746 109.200,231.452 109.200 C 232.901 109.200,232.904 109.196,232.667 107.735 C 232.314 105.563,231.853 105.412,230.876 107.150 M138.221 125.653 C 140.215 126.388,143.200 128.711,143.200 129.528 C 143.200 130.653,137.062 134.407,136.219 133.797 C 129.201 128.715,119.771 134.062,118.905 143.614 C 118.091 152.589,127.304 157.455,133.769 151.464 L 134.899 150.416 135.950 151.200 C 136.527 151.631,137.810 152.695,138.800 153.564 L 140.600 155.144 139.200 156.601 C 131.856 164.244,116.350 162.072,112.057 152.800 C 105.088 137.750,122.380 119.809,138.221 125.653 M176.593 125.279 C 193.790 129.624,189.768 156.008,171.200 160.651 C 158.215 163.898,147.684 155.402,149.553 143.189 C 151.596 129.843,163.486 121.967,176.593 125.279 M207.416 126.900 C 206.479 132.422,204.722 145.816,204.701 147.600 C 204.605 155.596,215.026 156.423,217.979 148.654 C 218.434 147.459,219.660 139.636,220.778 130.800 C 221.501 125.082,221.035 125.600,225.454 125.600 L 229.292 125.600 229.025 127.900 C 228.879 129.165,228.592 131.190,228.388 132.400 C 228.184 133.610,227.655 137.221,227.212 140.424 C 225.693 151.428,225.187 152.844,221.420 156.635 C 217.967 160.110,215.656 160.959,209.600 160.979 C 200.984 161.008,196.800 157.369,196.800 149.849 C 196.800 147.184,199.266 127.711,199.807 126.100 C 199.926 125.747,201.097 125.600,203.806 125.600 L 207.636 125.600 207.416 126.900 M252.522 126.900 C 255.941 134.147,259.658 142.079,261.614 146.307 C 263.170 149.668,263.348 149.554,263.955 144.800 C 264.194 142.930,264.671 139.420,265.016 137.000 C 265.361 134.580,265.813 131.347,266.021 129.817 C 266.633 125.312,266.317 125.600,270.632 125.600 L 274.409 125.600 274.195 127.100 C 273.911 129.091,270.934 150.532,270.376 154.600 C 270.135 156.360,269.810 158.340,269.654 159.000 L 269.370 160.200 264.385 160.200 L 259.400 160.200 258.390 158.200 C 257.834 157.100,256.407 154.130,255.219 151.600 C 248.494 137.287,247.915 136.179,247.578 137.000 C 247.282 137.725,246.690 141.719,244.971 154.600 C 244.128 160.920,244.538 160.400,240.397 160.400 C 238.444 160.400,236.751 160.245,236.634 160.056 C 236.447 159.753,237.152 154.054,238.372 146.000 C 238.589 144.570,238.871 142.590,239.000 141.600 C 239.218 139.924,239.522 137.810,240.411 131.800 C 240.606 130.480,240.874 128.545,241.007 127.500 L 241.249 125.600 246.579 125.600 L 251.909 125.600 252.522 126.900 M310.800 126.067 C 310.800 127.507,309.826 131.844,309.446 132.094 C 309.201 132.256,306.995 132.391,304.543 132.394 C 299.421 132.401,299.973 131.881,299.229 137.400 C 298.991 139.160,298.614 141.860,298.391 143.400 C 298.167 144.940,297.627 148.720,297.191 151.800 C 296.754 154.880,296.283 158.081,296.144 158.914 L 295.891 160.429 292.245 160.314 L 288.600 160.200 288.717 158.000 C 288.781 156.790,289.546 150.812,290.417 144.715 C 291.288 138.618,292.000 133.359,292.000 133.028 C 292.000 132.532,291.169 132.405,287.300 132.313 L 282.600 132.200 282.691 130.200 C 282.741 129.100,282.884 127.615,283.009 126.900 L 283.236 125.600 297.018 125.600 C 307.262 125.600,310.800 125.720,310.800 126.067 M339.800 126.392 C 347.367 129.980,346.267 141.940,338.083 145.066 C 335.946 145.882,335.916 145.699,339.408 153.032 C 340.838 156.033,342.117 158.925,342.250 159.458 L 342.494 160.427 337.951 160.314 L 333.409 160.200 330.778 153.400 L 328.148 146.600 326.476 146.477 C 324.375 146.323,324.304 146.484,323.424 153.400 C 322.424 161.249,323.010 160.400,318.592 160.400 C 314.202 160.400,314.525 160.942,315.402 155.048 C 316.268 149.228,316.663 146.454,318.002 136.800 C 318.658 132.070,319.297 127.601,319.422 126.869 L 319.648 125.537 329.124 125.680 C 336.245 125.788,338.898 125.965,339.800 126.392 M361.200 126.601 C 361.410 127.152,361.925 128.367,362.345 129.301 C 362.765 130.236,363.780 132.575,364.602 134.500 C 365.423 136.425,366.209 137.993,366.347 137.985 C 366.486 137.977,368.654 135.187,371.165 131.785 L 375.729 125.600 380.314 125.600 C 383.917 125.600,384.817 125.707,384.518 126.100 C 384.309 126.375,380.989 130.560,377.140 135.400 C 368.468 146.303,369.008 145.377,368.393 150.400 C 368.110 152.710,367.676 155.860,367.428 157.400 L 366.977 160.200 363.425 160.316 C 359.230 160.454,359.061 160.342,359.564 157.769 C 359.775 156.686,360.250 153.460,360.618 150.600 L 361.288 145.400 356.214 135.500 L 351.141 125.600 355.980 125.600 C 360.776 125.600,360.823 125.609,361.200 126.601 M167.800 131.982 C 154.887 134.254,153.890 153.946,166.685 153.991 C 174.056 154.017,178.981 148.888,178.994 141.171 C 179.005 134.321,174.681 130.771,167.800 131.982 M326.432 132.915 C 326.241 133.419,325.952 135.241,325.791 136.964 L 325.497 140.097 329.448 139.914 C 335.554 139.632,338.762 136.668,336.287 133.595 C 334.792 131.739,327.081 131.208,326.432 132.915 " stroke="none" fill="#8d7536" fill-rule="evenodd"></path><path id="path1" d="M100.028 101.078 C 96.394 102.991,96.024 108.794,99.536 108.801 C 100.544 108.804,102.800 110.310,102.800 110.980 C 102.800 112.305,100.211 112.819,98.659 111.802 C 97.806 111.243,97.672 111.282,96.612 112.387 C 95.237 113.823,95.621 114.560,98.095 115.225 C 105.054 117.100,109.435 108.867,102.699 106.572 C 99.939 105.631,100.208 102.550,102.977 103.400 C 103.430 103.539,104.070 103.737,104.400 103.841 C 105.493 104.184,107.391 102.019,106.648 101.277 C 105.683 100.312,101.711 100.192,100.028 101.078 M183.059 100.787 C 177.301 102.634,175.027 111.082,179.454 114.183 C 185.900 118.698,195.652 110.640,192.176 103.671 C 190.875 101.064,186.505 99.681,183.059 100.787 M269.055 100.961 C 263.686 102.960,261.584 111.401,265.771 114.144 C 272.475 118.537,281.922 110.856,278.551 103.753 C 277.192 100.889,272.753 99.584,269.055 100.961 M292.987 101.199 C 288.761 103.291,289.074 107.797,293.538 109.134 C 295.726 109.790,296.321 110.582,295.393 111.608 C 294.544 112.546,292.913 112.635,291.733 111.808 C 290.731 111.107,288.800 112.274,288.800 113.581 C 288.800 116.453,296.559 115.727,298.416 112.681 C 300.079 109.953,299.421 108.245,296.141 106.773 C 292.491 105.136,293.124 102.077,296.798 103.599 C 298.087 104.133,300.000 103.040,300.000 101.769 C 300.000 100.383,295.393 100.008,292.987 101.199 M16.688 102.900 C 16.572 104.055,16.248 106.530,15.967 108.400 C 15.113 114.093,15.190 114.976,16.549 115.131 C 18.144 115.314,18.328 115.008,18.797 111.388 C 19.689 104.504,19.862 104.356,20.802 109.675 C 21.634 114.386,21.946 115.201,22.915 115.194 C 24.248 115.185,24.418 114.964,26.908 110.000 L 29.217 105.400 28.976 108.200 C 28.844 109.740,28.567 111.777,28.361 112.726 C 27.896 114.861,28.092 115.200,29.797 115.200 C 31.364 115.200,31.399 115.128,31.981 110.600 C 32.207 108.840,32.570 106.230,32.788 104.800 C 33.428 100.593,33.531 100.800,30.798 100.800 L 28.395 100.800 26.319 104.975 C 24.011 109.616,23.877 109.690,23.214 106.701 C 22.957 105.546,22.545 103.745,22.298 102.700 L 21.849 100.800 19.374 100.800 L 16.899 100.800 16.688 102.900 M37.399 102.500 C 35.507 115.336,35.509 115.200,37.251 115.200 C 38.787 115.200,38.972 114.685,39.978 107.600 C 41.024 100.233,41.087 100.800,39.225 100.800 C 37.677 100.800,37.645 100.830,37.399 102.500 M45.023 102.100 C 44.039 108.102,43.250 114.558,43.460 114.897 C 44.581 116.710,54.130 114.258,55.913 111.698 C 60.071 105.728,57.001 100.800,49.124 100.800 L 45.236 100.800 45.023 102.100 M60.800 101.548 C 60.800 101.959,61.050 103.804,61.355 105.648 C 61.661 107.491,62.136 110.395,62.412 112.100 C 62.889 115.049,62.964 115.200,63.957 115.194 C 65.656 115.184,65.694 115.129,68.653 108.500 C 69.732 106.081,70.268 105.860,70.594 107.700 C 70.720 108.415,71.043 110.241,71.312 111.757 C 72.370 117.733,74.174 116.730,77.900 108.095 C 81.307 100.199,81.196 100.800,79.245 100.800 L 77.690 100.800 76.457 103.900 C 75.779 105.605,75.026 107.540,74.784 108.200 C 74.199 109.795,73.833 109.094,73.216 105.200 C 72.505 100.714,72.552 100.800,70.831 100.800 L 69.315 100.800 67.459 104.800 C 65.203 109.660,64.988 109.709,64.659 105.433 C 64.316 100.964,64.234 100.800,62.357 100.800 C 61.103 100.800,60.800 100.945,60.800 101.548 M83.999 100.900 C 83.999 100.955,83.551 104.035,83.003 107.745 C 82.456 111.454,82.107 114.649,82.228 114.845 C 82.655 115.536,91.884 115.278,92.157 114.567 C 93.004 112.360,92.599 112.000,89.267 112.000 C 85.700 112.000,85.578 111.943,85.968 110.475 C 86.239 109.457,86.411 109.389,89.200 109.200 C 91.989 109.011,92.161 108.943,92.432 107.925 C 92.818 106.473,92.678 106.400,89.508 106.400 L 86.749 106.400 86.875 105.100 L 87.000 103.800 90.185 103.600 L 93.370 103.400 93.635 102.100 L 93.899 100.800 88.949 100.800 C 86.227 100.800,84.000 100.845,83.999 100.900 M109.883 101.898 C 109.592 103.424,109.796 103.600,111.859 103.600 L 113.670 103.600 113.443 105.100 C 112.990 108.077,112.287 113.417,112.244 114.200 C 112.209 114.842,112.489 115.024,113.666 115.122 C 115.530 115.277,115.278 116.098,116.683 105.300 C 116.899 103.638,116.938 103.600,118.419 103.600 C 120.643 103.600,121.200 103.271,121.200 101.957 L 121.200 100.800 115.647 100.800 L 110.093 100.800 109.883 101.898 M124.206 103.300 C 124.056 104.675,123.678 107.309,123.367 109.152 C 123.055 110.996,122.800 113.111,122.800 113.852 L 122.800 115.200 127.613 115.200 C 132.689 115.200,132.686 115.201,132.895 113.200 C 132.999 112.213,132.956 112.198,129.676 112.083 L 126.352 111.967 126.476 110.683 L 126.600 109.400 129.658 109.284 C 132.425 109.179,132.738 109.084,132.952 108.284 C 133.435 106.484,133.323 106.400,130.424 106.400 C 127.457 106.400,126.983 106.117,127.370 104.577 C 127.604 103.643,127.756 103.600,130.808 103.600 C 133.092 103.600,134.002 103.458,134.005 103.100 C 134.008 102.825,134.119 102.195,134.252 101.700 C 134.493 100.802,134.484 100.800,129.486 100.800 L 124.479 100.800 124.206 103.300 M138.639 101.900 C 138.313 103.492,136.800 113.977,136.800 114.640 C 136.800 115.023,137.287 115.200,138.343 115.200 L 139.887 115.200 140.400 112.200 C 140.682 110.550,141.033 109.200,141.180 109.200 C 141.868 109.200,142.735 110.376,143.392 112.200 C 144.371 114.918,144.658 115.200,146.449 115.200 C 148.281 115.200,148.290 115.155,147.000 112.238 C 145.785 109.491,145.758 108.931,146.828 108.591 C 148.524 108.053,149.733 104.653,148.952 102.618 C 148.462 101.341,146.587 100.800,142.652 100.800 L 138.864 100.800 138.639 101.900 M152.992 103.500 C 152.843 104.985,152.575 106.920,152.397 107.800 C 152.218 108.680,151.946 110.717,151.793 112.327 L 151.513 115.253 153.052 115.127 L 154.591 115.000 155.254 110.726 C 156.148 104.954,156.100 105.000,157.689 108.400 C 161.229 115.974,160.641 115.200,162.857 115.200 C 165.216 115.200,164.954 115.812,166.119 107.600 L 167.055 101.000 165.889 100.872 C 163.882 100.651,163.727 100.903,163.191 105.269 C 162.519 110.747,162.468 110.749,160.006 105.413 L 157.877 100.800 155.571 100.800 L 153.264 100.800 152.992 103.500 M197.178 101.500 C 197.166 101.885,196.753 104.949,196.261 108.310 C 195.269 115.078,195.303 115.315,197.242 115.130 L 198.600 115.000 199.200 110.725 C 199.987 105.118,200.019 105.116,202.598 110.542 L 204.812 115.200 206.779 115.200 C 209.037 115.200,208.930 115.375,209.593 110.600 C 209.837 108.840,210.208 106.425,210.418 105.233 C 211.129 101.196,211.025 100.800,209.251 100.800 C 207.510 100.800,207.543 100.717,206.960 106.511 C 206.574 110.347,206.251 110.213,203.893 105.241 L 201.800 100.827 199.500 100.814 C 197.579 100.802,197.196 100.915,197.178 101.500 M213.914 102.002 C 213.690 103.529,213.777 103.600,215.867 103.600 C 216.820 103.600,217.600 103.704,217.600 103.832 C 217.600 103.960,217.315 106.255,216.967 108.932 C 216.618 111.609,216.327 113.890,216.319 114.000 C 216.253 114.944,216.563 115.200,217.773 115.200 C 219.528 115.200,219.397 115.639,220.670 105.519 L 220.907 103.638 222.939 103.519 C 224.877 103.406,224.983 103.340,225.235 102.100 L 225.499 100.800 219.795 100.800 L 214.091 100.800 213.914 102.002 M227.456 107.503 C 223.097 115.127,223.074 115.200,224.994 115.200 C 226.180 115.200,226.549 114.958,227.459 113.583 L 228.529 111.966 231.130 112.083 C 233.712 112.199,233.735 112.211,234.199 113.600 C 234.622 114.867,234.826 115.012,236.333 115.123 C 238.457 115.280,238.463 115.438,236.066 107.400 L 234.157 101.000 232.734 100.879 L 231.311 100.758 227.456 107.503 M243.044 101.700 C 242.949 102.195,242.667 104.130,242.417 106.000 C 242.167 107.870,241.773 110.513,241.541 111.873 C 241.052 114.741,241.226 115.200,242.800 115.200 C 244.218 115.200,244.480 114.799,244.852 112.057 C 245.378 108.182,246.226 108.281,247.801 112.403 L 248.870 115.200 250.635 115.200 C 252.715 115.200,252.764 114.999,251.396 112.060 C 250.185 109.459,250.159 108.930,251.228 108.591 C 252.924 108.053,254.133 104.653,253.352 102.618 C 252.591 100.635,243.403 99.817,243.044 101.700 M256.858 107.100 C 255.684 115.588,255.659 115.277,257.500 115.124 L 259.000 115.000 259.866 109.200 C 261.130 100.730,261.135 100.800,259.265 100.800 L 257.729 100.800 256.858 107.100 M283.513 103.300 C 282.374 106.067,282.406 106.400,283.810 106.400 C 284.814 106.400,285.088 106.044,286.667 102.700 L 287.563 100.800 286.052 100.800 C 284.575 100.800,284.518 100.856,283.513 103.300 M188.348 104.567 C 190.217 106.435,189.200 110.539,186.557 111.794 C 183.368 113.307,180.572 111.804,180.639 108.612 C 180.730 104.270,185.531 101.751,188.348 104.567 M274.617 104.416 C 277.304 106.941,275.086 111.841,271.050 112.296 C 269.430 112.478,269.109 112.371,268.019 111.281 C 264.179 107.441,270.659 100.698,274.617 104.416 M51.122 103.844 C 56.486 104.917,54.297 112.000,48.602 112.000 L 46.764 112.000 46.977 110.700 C 48.287 102.709,47.980 103.216,51.122 103.844 M145.558 104.149 C 146.539 105.331,144.898 106.800,142.598 106.800 C 141.385 106.800,141.075 106.280,141.402 104.790 C 141.696 103.452,144.606 103.003,145.558 104.149 M249.927 104.900 C 250.028 105.777,249.840 106.080,249.001 106.400 C 246.702 107.274,245.621 106.744,245.899 104.880 C 246.179 103.008,249.711 103.025,249.927 104.900 M232.667 107.735 C 232.904 109.196,232.901 109.200,231.452 109.200 C 229.746 109.200,229.739 109.174,230.876 107.150 C 231.853 105.412,232.314 105.563,232.667 107.735 M128.825 124.831 C 108.831 127.449,103.495 155.877,122.101 160.659 C 127.971 162.168,135.587 160.361,139.200 156.601 L 140.600 155.144 138.800 153.564 C 137.810 152.695,136.527 151.631,135.950 151.200 L 134.899 150.416 133.769 151.464 C 127.304 157.455,118.091 152.589,118.905 143.614 C 119.771 134.062,129.201 128.715,136.219 133.797 C 137.062 134.407,143.200 130.653,143.200 129.528 C 143.200 126.698,135.007 124.021,128.825 124.831 M167.738 124.786 C 149.385 126.910,142.176 152.545,157.924 159.685 C 167.651 164.096,180.633 159.261,185.178 149.534 C 191.972 134.994,183.494 122.964,167.738 124.786 M199.807 126.100 C 199.266 127.711,196.800 147.184,196.800 149.849 C 196.800 163.733,218.536 165.617,224.736 152.270 C 225.769 150.045,226.106 148.433,227.212 140.424 C 227.655 137.221,228.184 133.610,228.388 132.400 C 228.592 131.190,228.879 129.165,229.025 127.900 L 229.292 125.600 225.454 125.600 C 221.035 125.600,221.501 125.082,220.778 130.800 C 219.660 139.636,218.434 147.459,217.979 148.654 C 215.026 156.423,204.605 155.596,204.701 147.600 C 204.722 145.816,206.479 132.422,207.416 126.900 L 207.636 125.600 203.806 125.600 C 201.097 125.600,199.926 125.747,199.807 126.100 M241.007 127.500 C 240.874 128.545,240.606 130.480,240.411 131.800 C 239.522 137.810,239.218 139.924,239.000 141.600 C 238.871 142.590,238.589 144.570,238.372 146.000 C 237.152 154.054,236.447 159.753,236.634 160.056 C 236.751 160.245,238.444 160.400,240.397 160.400 C 244.538 160.400,244.128 160.920,244.971 154.600 C 246.690 141.719,247.282 137.725,247.578 137.000 C 247.915 136.179,248.494 137.287,255.219 151.600 C 256.407 154.130,257.834 157.100,258.390 158.200 L 259.400 160.200 264.385 160.200 L 269.370 160.200 269.654 159.000 C 269.810 158.340,270.135 156.360,270.376 154.600 C 270.934 150.532,273.911 129.091,274.195 127.100 L 274.409 125.600 270.632 125.600 C 266.317 125.600,266.633 125.312,266.021 129.817 C 265.813 131.347,265.361 134.580,265.016 137.000 C 264.671 139.420,264.194 142.930,263.955 144.800 C 263.348 149.554,263.170 149.668,261.614 146.307 C 259.658 142.079,255.941 134.147,252.522 126.900 L 251.909 125.600 246.579 125.600 L 241.249 125.600 241.007 127.500 M283.009 126.900 C 282.884 127.615,282.741 129.100,282.691 130.200 L 282.600 132.200 287.300 132.313 C 291.169 132.405,292.000 132.532,292.000 133.028 C 292.000 133.359,291.288 138.618,290.417 144.715 C 289.546 150.812,288.781 156.790,288.717 158.000 L 288.600 160.200 292.245 160.314 L 295.891 160.429 296.144 158.914 C 296.283 158.081,296.754 154.880,297.191 151.800 C 297.627 148.720,298.167 144.940,298.391 143.400 C 298.614 141.860,298.991 139.160,299.229 137.400 C 299.973 131.881,299.421 132.401,304.543 132.394 C 306.995 132.391,309.201 132.256,309.446 132.094 C 309.826 131.844,310.800 127.507,310.800 126.067 C 310.800 125.720,307.262 125.600,297.018 125.600 L 283.236 125.600 283.009 126.900 M319.422 126.869 C 319.297 127.601,318.658 132.070,318.002 136.800 C 316.663 146.454,316.268 149.228,315.402 155.048 C 314.525 160.942,314.202 160.400,318.592 160.400 C 323.010 160.400,322.424 161.249,323.424 153.400 C 324.304 146.484,324.375 146.323,326.476 146.477 L 328.148 146.600 330.778 153.400 L 333.409 160.200 337.951 160.314 L 342.494 160.427 342.250 159.458 C 342.117 158.925,340.838 156.033,339.408 153.032 C 335.916 145.699,335.946 145.882,338.083 145.066 C 344.758 142.517,347.365 131.283,342.109 127.714 C 339.450 125.908,338.938 125.828,329.124 125.680 L 319.648 125.537 319.422 126.869 M356.214 135.500 L 361.288 145.400 360.618 150.600 C 360.250 153.460,359.775 156.686,359.564 157.769 C 359.061 160.342,359.230 160.454,363.425 160.316 L 366.977 160.200 367.428 157.400 C 367.676 155.860,368.110 152.710,368.393 150.400 C 369.008 145.377,368.468 146.303,377.140 135.400 C 380.989 130.560,384.309 126.375,384.518 126.100 C 384.817 125.707,383.917 125.600,380.314 125.600 L 375.729 125.600 371.165 131.785 C 368.654 135.187,366.486 137.977,366.347 137.985 C 366.209 137.993,365.423 136.425,364.602 134.500 C 363.780 132.575,362.765 130.236,362.345 129.301 C 361.925 128.367,361.410 127.152,361.200 126.601 C 360.823 125.609,360.776 125.600,355.980 125.600 L 351.141 125.600 356.214 135.500 M175.109 133.068 C 182.126 137.077,179.720 150.053,171.380 153.173 C 161.563 156.846,154.369 148.426,158.987 138.665 C 161.829 132.658,169.643 129.945,175.109 133.068 M334.681 132.495 C 336.813 133.438,337.386 135.306,336.230 137.542 C 335.387 139.172,333.847 139.711,329.448 139.914 L 325.497 140.097 325.791 136.964 C 326.263 131.918,326.191 132.000,330.171 132.000 C 332.036 132.000,334.066 132.223,334.681 132.495 " stroke="none" fill="#f8f7f4" fill-rule="evenodd"></path><path id="path2" d="M329.200 78.800 C 329.200 79.020,328.763 79.200,328.229 79.200 C 327.694 79.200,326.987 79.470,326.657 79.800 C 326.327 80.130,325.864 80.400,325.629 80.400 C 325.393 80.400,325.200 80.568,325.200 80.773 C 325.200 80.978,324.849 81.257,324.420 81.394 C 323.992 81.530,323.520 82.023,323.372 82.490 C 323.223 82.957,322.771 83.694,322.367 84.128 C 321.086 85.502,320.744 93.915,321.953 94.318 C 322.199 94.400,322.400 94.630,322.400 94.829 C 322.400 95.504,323.774 96.800,324.489 96.800 C 324.880 96.800,325.200 96.980,325.200 97.200 C 325.200 97.420,325.470 97.600,325.800 97.600 C 326.130 97.600,326.400 97.780,326.400 98.000 C 326.400 98.220,327.030 98.400,327.800 98.400 C 329.378 98.400,329.579 98.771,328.400 99.507 C 327.960 99.782,327.600 100.211,327.600 100.460 C 327.600 100.709,327.060 101.429,326.400 102.060 C 325.740 102.691,325.200 103.433,325.200 103.709 C 325.200 103.984,324.750 104.548,324.200 104.961 C 323.650 105.374,323.200 106.032,323.200 106.423 C 323.200 106.814,322.988 107.204,322.729 107.290 C 321.155 107.815,323.215 108.400,326.639 108.400 L 330.431 108.400 332.016 106.831 C 332.887 105.969,333.600 105.151,333.600 105.014 C 333.600 104.777,334.011 104.229,335.100 103.015 C 335.375 102.708,335.600 102.331,335.600 102.176 C 335.600 102.021,336.230 101.300,337.000 100.574 C 337.770 99.848,338.400 99.070,338.400 98.845 C 338.400 98.620,338.828 98.008,339.352 97.484 C 339.876 96.961,340.428 96.142,340.579 95.666 C 340.730 95.190,341.022 94.800,341.227 94.800 C 341.432 94.800,341.600 94.530,341.600 94.200 C 341.600 93.870,341.778 93.600,341.995 93.600 C 342.213 93.600,342.506 92.876,342.648 91.991 C 342.789 91.106,343.061 90.286,343.253 90.168 C 345.126 89.009,342.704 81.085,340.067 79.745 C 339.260 79.335,338.540 78.865,338.467 78.700 C 338.260 78.236,329.200 78.333,329.200 78.800 M353.600 78.757 C 353.600 78.953,353.136 79.230,352.569 79.372 C 351.498 79.641,348.400 82.438,348.400 83.135 C 348.400 83.354,348.226 83.593,348.014 83.667 C 347.801 83.740,347.507 84.835,347.359 86.100 L 347.090 88.400 350.745 88.400 C 353.867 88.400,354.400 88.304,354.400 87.743 C 354.400 86.646,356.655 84.800,357.996 84.800 C 358.658 84.800,359.200 84.967,359.200 85.171 C 359.200 85.376,359.469 85.812,359.799 86.141 C 360.510 86.853,359.529 89.031,358.320 89.421 C 357.947 89.542,357.533 89.983,357.400 90.400 C 357.267 90.817,356.827 91.265,356.421 91.393 C 356.015 91.522,355.021 92.251,354.213 93.014 C 353.404 93.776,352.573 94.400,352.364 94.400 C 352.156 94.400,351.398 95.006,350.679 95.746 C 349.960 96.486,348.983 97.215,348.507 97.366 C 348.030 97.517,347.530 97.991,347.394 98.420 C 347.258 98.848,346.709 99.308,346.173 99.442 C 345.571 99.594,345.200 99.975,345.200 100.443 C 345.200 100.860,345.020 101.200,344.800 101.200 C 344.580 101.200,344.400 102.154,344.400 103.320 C 344.400 104.486,344.205 105.635,343.966 105.874 C 343.728 106.112,343.593 106.733,343.666 107.254 L 343.800 108.200 354.300 108.307 L 364.800 108.413 364.800 106.607 C 364.800 105.613,364.980 104.800,365.200 104.800 C 365.420 104.800,365.600 104.080,365.600 103.200 L 365.600 101.600 360.200 101.600 C 355.142 101.600,353.567 101.245,355.666 100.579 C 356.142 100.428,356.961 99.876,357.484 99.352 C 358.008 98.828,358.581 98.400,358.757 98.400 C 358.933 98.400,359.726 97.770,360.519 97.000 C 361.312 96.230,362.067 95.600,362.197 95.600 C 362.467 95.600,363.410 94.851,364.119 94.072 C 364.384 93.782,365.009 93.161,365.508 92.693 C 366.007 92.225,366.525 91.158,366.659 90.321 C 366.793 89.484,367.059 88.800,367.251 88.800 C 367.443 88.800,367.600 87.540,367.600 86.000 C 367.600 84.400,367.429 83.200,367.200 83.200 C 366.980 83.200,366.800 82.758,366.800 82.218 C 366.800 81.146,365.112 79.200,364.182 79.200 C 363.862 79.200,363.600 79.020,363.600 78.800 C 363.600 78.555,361.667 78.400,358.600 78.400 C 355.850 78.400,353.600 78.560,353.600 78.757 M378.400 78.800 C 378.400 79.020,377.963 79.200,377.429 79.200 C 376.894 79.200,376.219 79.464,375.929 79.786 C 374.997 80.819,374.451 81.388,373.919 81.881 C 372.990 82.742,372.400 83.558,372.400 83.983 C 372.400 84.212,372.228 84.400,372.018 84.400 C 371.808 84.400,371.518 85.030,371.374 85.800 C 371.229 86.570,370.951 87.200,370.755 87.200 C 370.560 87.200,370.400 87.725,370.400 88.367 C 370.400 89.008,370.178 89.607,369.907 89.698 C 369.194 89.935,369.187 103.262,369.900 103.500 C 370.175 103.592,370.400 103.839,370.400 104.050 C 370.400 104.860,373.166 107.600,373.983 107.600 C 374.212 107.600,374.400 107.780,374.400 108.000 C 374.400 108.240,376.000 108.400,378.400 108.400 C 380.800 108.400,382.400 108.240,382.400 108.000 C 382.400 107.780,382.850 107.600,383.400 107.600 C 383.950 107.600,384.400 107.440,384.400 107.243 C 384.400 107.047,384.850 106.774,385.400 106.636 C 385.950 106.498,386.400 106.207,386.400 105.990 C 386.400 105.772,386.841 105.211,387.380 104.742 C 387.919 104.274,388.474 103.375,388.612 102.745 C 388.750 102.115,389.029 101.600,389.232 101.600 C 389.434 101.600,389.600 101.330,389.600 101.000 C 389.600 100.670,389.763 100.400,389.962 100.400 C 390.162 100.400,390.449 99.500,390.600 98.400 C 390.751 97.301,391.038 96.300,391.237 96.177 C 391.707 95.886,391.713 83.600,391.243 83.600 C 391.047 83.600,390.772 83.143,390.632 82.584 C 390.312 81.312,388.331 79.200,387.457 79.200 C 387.096 79.200,386.800 79.020,386.800 78.800 C 386.800 78.559,385.133 78.400,382.600 78.400 C 380.067 78.400,378.400 78.559,378.400 78.800 M335.213 86.014 C 336.400 87.228,336.707 88.163,336.052 88.568 C 335.860 88.686,335.596 89.322,335.464 89.981 C 335.294 90.828,334.928 91.253,334.212 91.433 C 333.655 91.572,333.200 91.847,333.200 92.043 C 333.200 92.240,332.570 92.400,331.800 92.400 C 331.030 92.400,330.400 92.232,330.400 92.027 C 330.400 91.822,330.049 91.543,329.620 91.406 C 328.115 90.929,328.115 87.071,329.621 86.593 C 330.027 86.464,330.470 86.008,330.606 85.580 C 331.027 84.256,333.746 84.513,335.213 86.014 M383.400 85.600 C 383.540 86.040,383.822 86.400,384.027 86.400 C 384.235 86.400,384.400 88.345,384.400 90.800 C 384.400 93.220,384.240 95.200,384.045 95.200 C 383.850 95.200,383.569 96.012,383.420 97.005 C 382.901 100.466,379.628 102.564,377.561 100.762 C 376.515 99.850,376.183 90.806,377.183 90.472 C 377.412 90.396,377.600 89.898,377.600 89.367 C 377.600 88.835,377.780 88.400,378.000 88.400 C 378.220 88.400,378.400 88.105,378.400 87.744 C 378.400 85.664,382.819 83.769,383.400 85.600 M64.400 180.738 C 64.400 180.924,61.478 181.185,57.907 181.318 C 53.936 181.466,51.359 181.723,51.273 181.980 C 51.196 182.211,50.518 182.400,49.767 182.400 C 49.015 182.400,48.400 182.557,48.400 182.748 C 48.400 182.940,47.500 183.216,46.400 183.362 C 45.300 183.508,44.400 183.801,44.400 184.014 C 44.400 184.226,43.950 184.400,43.400 184.400 C 42.850 184.400,42.400 184.572,42.400 184.782 C 42.400 184.992,41.770 185.282,41.000 185.426 C 40.230 185.571,39.600 185.849,39.600 186.045 C 39.600 186.240,39.330 186.400,39.000 186.400 C 38.670 186.400,38.400 186.560,38.400 186.757 C 38.400 186.953,37.950 187.226,37.400 187.364 C 36.850 187.502,36.400 187.792,36.400 188.008 C 36.400 188.223,36.130 188.400,35.800 188.400 C 35.470 188.400,35.200 188.568,35.200 188.773 C 35.200 188.978,34.800 189.273,34.311 189.428 C 33.821 189.584,32.692 190.461,31.801 191.378 C 30.909 192.295,29.866 193.166,29.481 193.314 C 29.096 193.461,28.665 193.888,28.521 194.261 C 28.378 194.635,27.392 195.791,26.330 196.831 C 25.269 197.870,24.400 198.919,24.400 199.160 C 24.400 199.402,24.232 199.600,24.027 199.600 C 23.822 199.600,23.530 199.991,23.378 200.469 C 23.226 200.947,22.752 201.712,22.324 202.169 C 21.895 202.626,21.445 203.495,21.323 204.100 C 21.200 204.705,20.943 205.200,20.750 205.200 C 20.558 205.200,20.400 205.470,20.400 205.800 C 20.400 206.130,20.228 206.400,20.018 206.400 C 19.808 206.400,19.518 207.030,19.374 207.800 C 19.229 208.570,18.951 209.200,18.755 209.200 C 18.560 209.200,18.400 209.470,18.400 209.800 C 18.400 210.130,18.220 210.400,18.000 210.400 C 17.780 210.400,17.600 210.778,17.600 211.240 C 17.600 212.003,16.894 213.933,15.974 215.683 C 15.777 216.058,15.498 217.097,15.355 217.991 C 15.212 218.886,14.939 219.714,14.747 219.832 C 14.556 219.951,14.400 220.577,14.400 221.224 C 14.400 221.871,14.241 222.400,14.047 222.400 C 13.852 222.400,13.568 223.568,13.415 224.996 C 13.262 226.423,12.971 227.694,12.769 227.819 C 12.566 227.945,12.400 228.757,12.400 229.624 C 12.400 230.491,12.234 231.200,12.032 231.200 C 11.829 231.200,11.538 232.370,11.385 233.800 C 11.232 235.230,10.948 236.400,10.753 236.400 C 10.559 236.400,10.400 237.120,10.400 238.000 C 10.400 238.880,10.238 239.600,10.041 239.600 C 9.843 239.600,9.555 240.860,9.400 242.400 C 9.245 243.940,8.957 245.200,8.759 245.200 C 8.562 245.200,8.400 245.920,8.400 246.800 C 8.400 247.680,8.241 248.400,8.047 248.400 C 7.852 248.400,7.568 249.570,7.415 251.000 C 7.262 252.430,6.971 253.600,6.768 253.600 C 6.566 253.600,6.400 254.410,6.400 255.400 C 6.400 256.390,6.234 257.200,6.032 257.200 C 5.829 257.200,5.538 258.370,5.385 259.800 C 5.232 261.230,4.948 262.400,4.753 262.400 C 4.559 262.400,4.400 263.120,4.400 264.000 C 4.400 264.880,4.238 265.600,4.041 265.600 C 3.843 265.600,3.555 266.860,3.400 268.400 C 3.245 269.940,2.957 271.200,2.759 271.200 C 2.562 271.200,2.400 271.920,2.400 272.800 C 2.400 273.680,2.238 274.400,2.041 274.400 C 1.843 274.400,1.551 275.705,1.393 277.300 C 1.234 278.895,0.901 280.328,0.652 280.485 C 0.014 280.888,0.013 304.310,0.651 304.714 C 0.899 304.871,1.230 305.765,1.386 306.700 C 1.542 307.635,1.834 308.400,2.035 308.400 C 2.236 308.400,2.400 308.670,2.400 309.000 C 2.400 309.330,2.580 309.600,2.800 309.600 C 3.020 309.600,3.200 309.868,3.200 310.197 C 3.200 310.525,3.740 311.309,4.400 311.940 C 5.060 312.571,5.600 313.298,5.600 313.556 C 5.600 313.814,5.915 314.140,6.300 314.281 C 6.685 314.422,7.497 315.046,8.103 315.668 C 8.710 316.291,9.475 316.800,9.803 316.800 C 10.132 316.800,10.400 316.954,10.400 317.143 C 10.400 317.561,14.249 319.600,15.037 319.600 C 15.347 319.600,15.600 319.771,15.600 319.980 C 15.600 320.189,16.680 320.482,18.000 320.632 C 19.320 320.781,20.400 321.060,20.400 321.252 C 20.400 321.443,21.480 321.600,22.800 321.600 C 24.133 321.600,25.200 321.778,25.200 322.000 C 25.200 322.251,27.733 322.400,32.000 322.400 C 36.267 322.400,38.800 322.251,38.800 322.000 C 38.800 321.769,40.067 321.600,41.800 321.600 C 43.450 321.600,44.800 321.438,44.800 321.241 C 44.800 321.043,46.060 320.755,47.600 320.600 C 49.140 320.445,50.400 320.157,50.400 319.959 C 50.400 319.762,50.850 319.600,51.400 319.600 C 51.950 319.600,52.400 319.443,52.400 319.251 C 52.400 319.059,53.120 318.787,54.000 318.646 C 54.880 318.506,55.600 318.213,55.600 317.995 C 55.600 317.778,55.870 317.600,56.200 317.600 C 56.530 317.600,56.800 317.440,56.800 317.245 C 56.800 317.049,57.430 316.771,58.200 316.626 C 58.970 316.482,59.600 316.192,59.600 315.982 C 59.600 315.772,59.870 315.600,60.200 315.600 C 60.530 315.600,60.800 315.420,60.800 315.200 C 60.800 314.980,61.062 314.800,61.382 314.800 C 61.702 314.800,62.414 314.350,62.964 313.800 C 63.514 313.250,64.145 312.800,64.366 312.800 C 64.588 312.800,65.482 312.080,66.353 311.200 C 67.224 310.320,68.054 309.600,68.197 309.600 C 68.524 309.600,69.600 308.539,69.600 308.217 C 69.600 308.084,70.500 307.052,71.600 305.923 C 72.700 304.793,73.600 303.648,73.600 303.378 C 73.600 303.107,73.870 302.782,74.200 302.655 C 74.530 302.529,74.800 302.103,74.800 301.709 C 74.800 301.315,75.144 300.778,75.564 300.515 C 75.984 300.253,76.449 299.490,76.596 298.819 C 76.743 298.149,77.029 297.600,77.232 297.600 C 77.434 297.600,77.600 297.330,77.600 297.000 C 77.600 296.670,77.760 296.400,77.955 296.400 C 78.151 296.400,78.429 295.770,78.574 295.000 C 78.718 294.230,78.964 293.600,79.120 293.600 C 79.534 293.600,80.404 291.487,80.673 289.830 C 80.800 289.043,81.061 288.400,81.252 288.400 C 81.444 288.400,81.600 287.950,81.600 287.400 C 81.600 286.850,81.763 286.400,81.962 286.400 C 82.162 286.400,82.449 285.500,82.600 284.400 C 82.751 283.300,83.038 282.400,83.238 282.400 C 83.437 282.400,83.600 281.785,83.600 281.033 C 83.600 280.282,83.776 279.607,83.991 279.533 C 84.206 279.460,84.502 277.825,84.650 275.900 L 84.918 272.400 69.306 272.400 L 53.693 272.400 53.452 273.300 C 53.319 273.795,53.208 274.695,53.205 275.300 C 53.202 275.905,53.020 276.400,52.800 276.400 C 52.580 276.400,52.400 277.019,52.400 277.776 C 52.400 278.533,52.230 279.258,52.023 279.386 C 51.816 279.514,51.525 280.424,51.378 281.409 C 51.230 282.394,50.950 283.200,50.755 283.200 C 50.560 283.200,50.400 283.470,50.400 283.800 C 50.400 284.130,50.220 284.400,50.000 284.400 C 49.780 284.400,49.600 284.642,49.600 284.938 C 49.600 285.234,49.150 285.999,48.600 286.638 C 48.051 287.277,47.601 287.935,47.600 288.100 C 47.600 288.265,47.396 288.400,47.146 288.400 C 46.896 288.400,46.275 288.850,45.765 289.400 C 45.255 289.950,44.575 290.400,44.252 290.400 C 43.930 290.400,43.594 290.619,43.504 290.888 C 43.392 291.225,42.233 291.368,39.736 291.353 L 36.131 291.331 34.365 289.565 L 32.600 287.800 32.652 282.416 C 32.686 278.839,32.854 276.982,33.152 276.883 C 33.398 276.801,33.600 276.219,33.600 275.590 C 33.600 274.962,33.770 274.342,33.977 274.214 C 34.184 274.086,34.477 272.726,34.628 271.191 C 34.780 269.656,35.060 268.400,35.252 268.400 C 35.443 268.400,35.600 267.770,35.600 267.000 C 35.600 266.230,35.765 265.600,35.966 265.600 C 36.167 265.600,36.458 264.250,36.613 262.600 C 36.767 260.950,37.053 259.600,37.247 259.600 C 37.441 259.600,37.600 258.970,37.600 258.200 C 37.600 257.430,37.765 256.800,37.966 256.800 C 38.167 256.800,38.458 255.450,38.613 253.800 C 38.767 252.150,39.053 250.800,39.247 250.800 C 39.441 250.800,39.600 250.271,39.600 249.624 C 39.600 248.977,39.770 248.342,39.977 248.214 C 40.184 248.086,40.477 246.726,40.628 245.191 C 40.780 243.656,41.060 242.400,41.252 242.400 C 41.443 242.400,41.600 241.770,41.600 241.000 C 41.600 240.230,41.765 239.600,41.966 239.600 C 42.167 239.600,42.458 238.250,42.613 236.600 C 42.767 234.950,43.053 233.600,43.247 233.600 C 43.441 233.600,43.600 232.970,43.600 232.200 C 43.600 231.430,43.765 230.800,43.966 230.800 C 44.167 230.800,44.458 229.450,44.613 227.800 C 44.767 226.150,45.053 224.800,45.247 224.800 C 45.441 224.800,45.600 224.350,45.600 223.800 C 45.600 223.250,45.757 222.800,45.949 222.800 C 46.141 222.800,46.413 222.080,46.554 221.200 C 46.694 220.320,46.943 219.600,47.107 219.600 C 47.271 219.600,47.656 219.015,47.963 218.300 C 48.691 216.607,52.441 212.905,53.766 212.573 C 54.335 212.430,54.800 212.153,54.800 211.957 C 54.800 211.760,56.240 211.600,58.000 211.600 C 59.867 211.600,61.200 211.767,61.200 212.000 C 61.200 212.220,61.442 212.400,61.739 212.400 C 62.035 212.400,62.977 213.075,63.832 213.900 L 65.386 215.400 65.341 220.184 C 65.312 223.323,65.142 225.019,64.848 225.117 C 64.602 225.199,64.400 225.792,64.400 226.433 C 64.400 227.075,64.220 227.600,64.000 227.600 C 63.780 227.600,63.600 228.230,63.600 229.000 L 63.600 230.400 79.600 230.400 L 95.600 230.400 95.600 229.000 C 95.600 228.230,95.765 227.600,95.966 227.600 C 96.167 227.600,96.458 226.250,96.613 224.600 C 96.767 222.950,97.053 221.600,97.247 221.600 C 97.441 221.600,97.600 220.520,97.600 219.200 C 97.600 217.867,97.778 216.800,98.000 216.800 C 98.252 216.800,98.400 214.075,98.400 209.424 C 98.400 204.937,98.243 201.950,98.000 201.800 C 97.780 201.664,97.600 201.023,97.600 200.376 C 97.600 199.729,97.440 199.200,97.245 199.200 C 97.050 199.200,96.770 198.394,96.622 197.409 C 96.475 196.424,96.184 195.514,95.977 195.386 C 95.770 195.258,95.600 194.823,95.600 194.419 C 95.600 194.016,95.330 193.582,95.000 193.455 C 94.670 193.329,94.400 192.872,94.400 192.440 C 94.400 192.007,94.081 191.553,93.692 191.429 C 93.303 191.306,92.662 190.606,92.268 189.874 C 91.874 189.143,90.977 188.209,90.276 187.799 C 89.574 187.389,88.775 186.741,88.500 186.359 C 88.224 185.976,87.459 185.545,86.800 185.400 C 86.140 185.255,85.600 184.971,85.600 184.768 C 85.600 184.566,85.330 184.400,85.000 184.400 C 84.670 184.400,84.400 184.231,84.400 184.025 C 84.400 183.818,83.590 183.528,82.600 183.379 C 81.610 183.231,80.800 182.950,80.800 182.755 C 80.800 182.560,80.365 182.400,79.833 182.400 C 79.302 182.400,78.804 182.211,78.727 181.980 C 78.644 181.733,76.483 181.460,73.493 181.319 C 70.692 181.187,68.400 180.926,68.400 180.739 C 68.400 180.553,67.500 180.400,66.400 180.400 C 65.300 180.400,64.400 180.552,64.400 180.738 M117.452 184.100 C 117.319 184.595,117.208 185.495,117.205 186.100 C 117.202 186.705,117.020 187.200,116.800 187.200 C 116.580 187.200,116.400 187.920,116.400 188.800 C 116.400 189.680,116.241 190.400,116.047 190.400 C 115.852 190.400,115.568 191.570,115.415 193.000 C 115.262 194.430,114.971 195.600,114.768 195.600 C 114.566 195.600,114.400 196.410,114.400 197.400 C 114.400 198.390,114.234 199.200,114.032 199.200 C 113.829 199.200,113.538 200.370,113.385 201.800 C 113.232 203.230,112.948 204.400,112.753 204.400 C 112.559 204.400,112.400 205.120,112.400 206.000 C 112.400 206.880,112.238 207.600,112.041 207.600 C 111.843 207.600,111.555 208.860,111.400 210.400 C 111.245 211.940,110.957 213.200,110.759 213.200 C 110.562 213.200,110.400 213.920,110.400 214.800 C 110.400 215.680,110.241 216.400,110.047 216.400 C 109.852 216.400,109.568 217.570,109.415 219.000 C 109.262 220.430,108.971 221.600,108.768 221.600 C 108.566 221.600,108.400 222.410,108.400 223.400 C 108.400 224.390,108.234 225.200,108.032 225.200 C 107.829 225.200,107.538 226.370,107.385 227.800 C 107.232 229.230,106.948 230.400,106.753 230.400 C 106.559 230.400,106.400 231.120,106.400 232.000 C 106.400 232.880,106.238 233.600,106.041 233.600 C 105.843 233.600,105.555 234.860,105.400 236.400 C 105.245 237.940,104.957 239.200,104.759 239.200 C 104.562 239.200,104.400 239.920,104.400 240.800 C 104.400 241.680,104.241 242.400,104.047 242.400 C 103.852 242.400,103.568 243.570,103.415 245.000 C 103.262 246.430,102.971 247.600,102.768 247.600 C 102.566 247.600,102.400 248.410,102.400 249.400 C 102.400 250.390,102.234 251.200,102.032 251.200 C 101.829 251.200,101.538 252.370,101.385 253.800 C 101.232 255.230,100.948 256.400,100.753 256.400 C 100.559 256.400,100.400 257.120,100.400 258.000 C 100.400 258.880,100.238 259.600,100.041 259.600 C 99.843 259.600,99.555 260.860,99.400 262.400 C 99.245 263.940,98.957 265.200,98.759 265.200 C 98.562 265.200,98.400 265.920,98.400 266.800 C 98.400 267.680,98.241 268.400,98.047 268.400 C 97.852 268.400,97.568 269.570,97.415 271.000 C 97.262 272.430,96.971 273.600,96.768 273.600 C 96.566 273.600,96.400 274.219,96.400 274.976 C 96.400 275.733,96.238 276.453,96.041 276.575 C 95.843 276.697,95.555 278.058,95.400 279.598 C 95.245 281.139,94.957 282.400,94.759 282.400 C 94.562 282.400,94.400 283.019,94.400 283.776 C 94.400 284.533,94.238 285.253,94.041 285.375 C 93.843 285.497,93.555 286.858,93.400 288.398 C 93.245 289.939,92.957 291.200,92.759 291.200 C 92.562 291.200,92.400 291.729,92.400 292.376 C 92.400 293.023,92.244 293.649,92.053 293.768 C 91.861 293.886,91.581 295.246,91.428 296.791 C 91.276 298.336,90.982 299.600,90.776 299.600 C 90.569 299.600,90.400 300.219,90.400 300.976 C 90.400 301.733,90.238 302.453,90.041 302.575 C 89.843 302.697,89.555 304.058,89.400 305.598 C 89.245 307.139,88.957 308.400,88.759 308.400 C 88.562 308.400,88.400 309.019,88.400 309.776 C 88.400 310.533,88.238 311.253,88.041 311.375 C 87.843 311.497,87.555 312.858,87.400 314.398 C 87.245 315.939,86.957 317.200,86.759 317.200 C 86.562 317.200,86.400 317.729,86.400 318.376 C 86.400 319.023,86.220 319.664,86.000 319.800 C 85.780 319.936,85.600 320.397,85.600 320.824 C 85.600 321.579,86.028 321.600,101.502 321.600 L 117.405 321.600 117.870 320.500 C 118.126 319.895,118.457 318.275,118.607 316.900 C 118.756 315.525,119.041 314.400,119.239 314.400 C 119.438 314.400,119.600 313.770,119.600 313.000 C 119.600 312.230,119.759 311.600,119.953 311.600 C 120.147 311.600,120.433 310.250,120.587 308.600 C 120.742 306.950,121.033 305.600,121.234 305.600 C 121.435 305.600,121.600 304.970,121.600 304.200 C 121.600 303.430,121.759 302.800,121.953 302.800 C 122.147 302.800,122.433 301.450,122.587 299.800 C 122.742 298.150,123.033 296.800,123.234 296.800 C 123.435 296.800,123.600 296.271,123.600 295.624 C 123.600 294.977,123.756 294.351,123.947 294.232 C 124.139 294.114,124.419 292.754,124.572 291.209 C 124.724 289.664,125.018 288.400,125.224 288.400 C 125.431 288.400,125.600 287.770,125.600 287.000 C 125.600 286.230,125.759 285.600,125.953 285.600 C 126.147 285.600,126.433 284.250,126.587 282.600 C 126.742 280.950,127.033 279.600,127.234 279.600 C 127.435 279.600,127.600 278.970,127.600 278.200 C 127.600 277.430,127.759 276.800,127.953 276.800 C 128.147 276.800,128.433 275.450,128.587 273.800 C 128.742 272.150,129.033 270.800,129.234 270.800 C 129.435 270.800,129.600 270.386,129.600 269.880 C 129.600 267.338,130.334 266.806,133.848 266.803 L 137.095 266.800 137.343 268.300 C 137.480 269.125,137.593 270.475,137.596 271.300 C 137.598 272.125,137.780 272.800,138.000 272.800 C 138.222 272.800,138.400 273.867,138.400 275.200 C 138.400 276.520,138.563 277.600,138.762 277.600 C 138.960 277.600,139.252 279.493,139.410 281.806 C 139.567 284.120,139.855 286.110,140.048 286.230 C 140.242 286.349,140.400 287.337,140.400 288.424 C 140.400 289.511,140.558 290.400,140.752 290.400 C 140.946 290.400,141.233 292.290,141.391 294.600 C 141.548 296.910,141.840 298.800,142.038 298.800 C 142.237 298.800,142.400 299.880,142.400 301.200 C 142.400 302.520,142.563 303.600,142.762 303.600 C 142.960 303.600,143.252 305.493,143.410 307.806 C 143.567 310.120,143.855 312.110,144.048 312.230 C 144.242 312.349,144.400 313.337,144.400 314.424 C 144.400 315.511,144.580 316.400,144.800 316.400 C 145.020 316.400,145.202 317.165,145.205 318.100 C 145.208 319.035,145.319 320.205,145.452 320.700 L 145.693 321.600 162.290 321.600 L 178.887 321.600 178.598 317.100 C 178.439 314.625,178.149 312.540,177.954 312.467 C 177.759 312.393,177.600 311.268,177.600 309.967 C 177.600 308.665,177.438 307.600,177.239 307.600 C 177.041 307.600,176.750 305.530,176.592 303.000 C 176.433 300.470,176.146 298.400,175.952 298.400 C 175.758 298.400,175.600 297.320,175.600 296.000 C 175.600 294.680,175.438 293.600,175.239 293.600 C 175.041 293.600,174.750 291.530,174.592 289.000 C 174.433 286.470,174.146 284.400,173.952 284.400 C 173.758 284.400,173.600 283.320,173.600 282.000 C 173.600 280.680,173.438 279.600,173.239 279.600 C 173.041 279.600,172.750 277.530,172.592 275.000 C 172.433 272.470,172.146 270.400,171.952 270.400 C 171.758 270.400,171.600 269.320,171.600 268.000 C 171.600 266.680,171.438 265.600,171.239 265.600 C 171.041 265.600,170.750 263.530,170.592 261.000 C 170.433 258.470,170.146 256.400,169.952 256.400 C 169.758 256.400,169.600 255.320,169.600 254.000 C 169.600 252.667,169.422 251.600,169.200 251.600 C 168.980 251.600,168.800 251.330,168.800 251.000 C 168.800 250.670,168.980 250.400,169.200 250.400 C 169.420 250.400,169.600 250.040,169.600 249.600 C 169.600 249.160,169.760 248.800,169.957 248.800 C 170.153 248.800,170.426 248.350,170.564 247.800 C 170.702 247.250,170.992 246.800,171.208 246.800 C 171.423 246.800,171.600 246.530,171.600 246.200 C 171.600 245.870,171.760 245.600,171.957 245.600 C 172.153 245.600,172.426 245.150,172.564 244.600 C 172.702 244.050,172.992 243.600,173.208 243.600 C 173.423 243.600,173.600 243.330,173.600 243.000 C 173.600 242.670,173.777 242.400,173.992 242.400 C 174.208 242.400,174.498 241.950,174.636 241.400 C 174.774 240.850,175.047 240.400,175.243 240.400 C 175.440 240.400,175.600 240.040,175.600 239.600 C 175.600 239.160,175.777 238.800,175.992 238.800 C 176.208 238.800,176.498 238.350,176.636 237.800 C 176.774 237.250,177.047 236.800,177.243 236.800 C 177.440 236.800,177.600 236.530,177.600 236.200 C 177.600 235.870,177.777 235.600,177.992 235.600 C 178.208 235.600,178.498 235.150,178.636 234.600 C 178.774 234.050,179.047 233.600,179.243 233.600 C 179.440 233.600,179.600 233.330,179.600 233.000 C 179.600 232.670,179.777 232.400,179.992 232.400 C 180.208 232.400,180.498 231.950,180.636 231.400 C 180.774 230.850,181.047 230.400,181.243 230.400 C 181.440 230.400,181.600 230.059,181.600 229.643 C 181.600 229.226,181.870 228.782,182.200 228.655 C 182.530 228.529,182.800 228.103,182.800 227.709 C 182.800 227.315,183.144 226.778,183.564 226.515 C 183.984 226.253,184.449 225.490,184.596 224.819 C 184.743 224.149,185.001 223.600,185.169 223.600 C 185.337 223.600,185.817 222.925,186.237 222.100 C 186.657 221.275,187.303 220.319,187.673 219.976 C 188.044 219.633,188.478 218.823,188.638 218.176 C 188.798 217.529,189.240 216.779,189.619 216.509 C 189.998 216.239,190.431 215.530,190.581 214.933 C 190.731 214.336,191.176 213.567,191.570 213.224 C 191.963 212.881,192.427 212.150,192.600 211.600 C 192.773 211.050,193.223 210.330,193.600 210.000 C 193.977 209.670,194.413 208.995,194.570 208.500 C 194.726 208.005,195.022 207.600,195.227 207.600 C 195.432 207.600,195.600 207.330,195.600 207.000 C 195.600 206.670,195.780 206.400,196.000 206.400 C 196.220 206.400,196.400 206.062,196.400 205.649 C 196.400 205.236,196.670 204.674,197.000 204.400 C 197.330 204.126,197.600 203.654,197.600 203.351 C 197.600 203.048,197.760 202.800,197.957 202.800 C 198.153 202.800,198.426 202.350,198.564 201.800 C 198.702 201.250,198.992 200.800,199.208 200.800 C 199.423 200.800,199.600 200.530,199.600 200.200 C 199.600 199.870,199.760 199.600,199.957 199.600 C 200.153 199.600,200.426 199.150,200.564 198.600 C 200.702 198.050,200.992 197.600,201.208 197.600 C 201.423 197.600,201.600 197.330,201.600 197.000 C 201.600 196.670,201.780 196.400,202.000 196.400 C 202.220 196.400,202.400 196.034,202.400 195.587 C 202.400 195.141,202.670 194.671,203.000 194.545 C 203.330 194.418,203.600 193.974,203.600 193.557 C 203.600 193.141,203.777 192.800,203.992 192.800 C 204.208 192.800,204.498 192.350,204.636 191.800 C 204.774 191.250,205.047 190.800,205.243 190.800 C 205.440 190.800,205.600 190.530,205.600 190.200 C 205.600 189.870,205.777 189.600,205.992 189.600 C 206.208 189.600,206.498 189.150,206.636 188.600 C 206.774 188.050,207.047 187.600,207.243 187.600 C 207.440 187.600,207.600 187.407,207.600 187.171 C 207.600 186.936,207.870 186.473,208.200 186.143 C 208.530 185.813,208.800 185.014,208.800 184.367 L 208.800 183.191 192.105 183.296 C 175.800 183.398,175.407 183.419,175.258 184.196 C 175.173 184.633,174.787 185.214,174.398 185.486 C 174.009 185.759,173.569 186.470,173.419 187.067 C 173.269 187.664,172.824 188.433,172.430 188.776 C 172.037 189.119,171.587 189.805,171.430 190.300 C 171.274 190.795,170.978 191.200,170.773 191.200 C 170.568 191.200,170.400 191.470,170.400 191.800 C 170.400 192.130,170.240 192.400,170.043 192.400 C 169.847 192.400,169.574 192.850,169.436 193.400 C 169.298 193.950,169.008 194.400,168.792 194.400 C 168.577 194.400,168.400 194.670,168.400 195.000 C 168.400 195.330,168.223 195.600,168.008 195.600 C 167.792 195.600,167.502 196.050,167.364 196.600 C 167.226 197.150,166.953 197.600,166.757 197.600 C 166.560 197.600,166.400 197.941,166.400 198.357 C 166.400 198.774,166.130 199.218,165.800 199.345 C 165.470 199.471,165.200 199.941,165.200 200.387 C 165.200 200.834,165.020 201.200,164.800 201.200 C 164.580 201.200,164.400 201.470,164.400 201.800 C 164.400 202.130,164.232 202.400,164.027 202.400 C 163.822 202.400,163.526 202.805,163.370 203.300 C 163.213 203.795,162.777 204.470,162.400 204.800 C 162.023 205.130,161.573 205.850,161.400 206.400 C 161.227 206.950,160.777 207.670,160.400 208.000 C 160.023 208.330,159.587 209.005,159.430 209.500 C 159.274 209.995,158.978 210.400,158.773 210.400 C 158.568 210.400,158.400 210.670,158.400 211.000 C 158.400 211.330,158.220 211.600,158.000 211.600 C 157.780 211.600,157.600 211.966,157.600 212.413 C 157.600 212.859,157.330 213.329,157.000 213.455 C 156.670 213.582,156.400 214.026,156.400 214.443 C 156.400 214.859,156.223 215.200,156.008 215.200 C 155.792 215.200,155.502 215.650,155.364 216.200 C 155.226 216.750,154.953 217.200,154.757 217.200 C 154.560 217.200,154.400 217.470,154.400 217.800 C 154.400 218.130,154.223 218.400,154.008 218.400 C 153.792 218.400,153.502 218.850,153.364 219.400 C 153.226 219.950,152.953 220.400,152.757 220.400 C 152.560 220.400,152.400 220.670,152.400 221.000 C 152.400 221.330,152.232 221.600,152.027 221.600 C 151.822 221.600,151.530 221.991,151.378 222.469 C 151.226 222.947,150.752 223.712,150.324 224.169 C 149.895 224.626,149.446 225.490,149.325 226.088 C 149.204 226.687,148.766 227.284,148.352 227.415 C 147.939 227.546,147.600 227.980,147.600 228.378 C 147.600 228.776,147.330 229.326,147.000 229.600 C 146.670 229.874,146.400 230.346,146.400 230.649 C 146.400 230.952,146.240 231.200,146.043 231.200 C 145.847 231.200,145.574 231.650,145.436 232.200 C 145.298 232.750,145.008 233.200,144.792 233.200 C 144.577 233.200,144.400 233.470,144.400 233.800 C 144.400 234.130,144.220 234.400,144.000 234.400 C 143.780 234.400,143.600 234.670,143.600 235.000 C 143.600 235.480,143.000 235.600,140.600 235.600 C 137.667 235.600,137.600 235.578,137.600 234.600 C 137.600 234.050,137.759 233.600,137.953 233.600 C 138.147 233.600,138.433 232.250,138.587 230.600 C 138.742 228.950,139.033 227.600,139.234 227.600 C 139.435 227.600,139.600 226.970,139.600 226.200 C 139.600 225.430,139.759 224.800,139.953 224.800 C 140.147 224.800,140.433 223.450,140.587 221.800 C 140.742 220.150,141.033 218.800,141.234 218.800 C 141.435 218.800,141.600 218.271,141.600 217.624 C 141.600 216.977,141.756 216.351,141.947 216.232 C 142.139 216.114,142.419 214.754,142.572 213.209 C 142.724 211.664,143.018 210.400,143.224 210.400 C 143.431 210.400,143.600 209.770,143.600 209.000 C 143.600 208.230,143.759 207.600,143.953 207.600 C 144.147 207.600,144.433 206.250,144.587 204.600 C 144.742 202.950,145.033 201.600,145.234 201.600 C 145.435 201.600,145.600 200.970,145.600 200.200 C 145.600 199.430,145.759 198.800,145.953 198.800 C 146.147 198.800,146.433 197.450,146.587 195.800 C 146.742 194.150,147.033 192.800,147.234 192.800 C 147.435 192.800,147.600 192.296,147.600 191.680 C 147.600 191.064,147.766 190.389,147.969 190.180 C 148.172 189.971,148.466 188.315,148.621 186.500 L 148.903 183.200 133.298 183.200 L 117.693 183.200 117.452 184.100 M221.467 183.467 C 221.320 183.613,221.200 184.333,221.200 185.067 C 221.200 185.800,221.020 186.400,220.800 186.400 C 220.580 186.400,220.400 187.120,220.400 188.000 C 220.400 188.880,220.246 189.600,220.057 189.600 C 219.869 189.600,219.594 190.901,219.446 192.491 C 219.298 194.081,219.003 195.557,218.789 195.771 C 218.575 195.985,218.400 196.844,218.400 197.680 C 218.400 198.516,218.239 199.200,218.042 199.200 C 217.845 199.200,217.556 200.640,217.400 202.400 C 217.244 204.160,216.955 205.600,216.758 205.600 C 216.561 205.600,216.400 206.230,216.400 207.000 C 216.400 207.770,216.236 208.400,216.036 208.400 C 215.836 208.400,215.544 209.930,215.389 211.800 C 215.233 213.670,214.947 215.200,214.753 215.200 C 214.559 215.200,214.400 215.729,214.400 216.376 C 214.400 217.023,214.239 217.652,214.042 217.774 C 213.845 217.896,213.556 219.437,213.400 221.198 C 213.244 222.959,212.955 224.400,212.758 224.400 C 212.561 224.400,212.400 225.019,212.400 225.776 C 212.400 226.533,212.235 227.255,212.034 227.379 C 211.833 227.504,211.541 228.954,211.387 230.603 C 211.232 232.251,210.947 233.600,210.753 233.600 C 210.559 233.600,210.400 234.219,210.400 234.976 C 210.400 235.733,210.232 236.457,210.027 236.583 C 209.822 236.710,209.528 238.251,209.375 240.007 C 209.222 241.763,208.940 243.200,208.748 243.200 C 208.557 243.200,208.400 243.920,208.400 244.800 C 208.400 245.680,208.235 246.400,208.034 246.400 C 207.833 246.400,207.542 247.750,207.387 249.400 C 207.233 251.050,206.947 252.400,206.753 252.400 C 206.559 252.400,206.400 253.120,206.400 254.000 C 206.400 254.880,206.235 255.600,206.034 255.600 C 205.833 255.600,205.542 256.950,205.387 258.600 C 205.233 260.250,204.947 261.600,204.753 261.600 C 204.559 261.600,204.400 262.410,204.400 263.400 C 204.400 264.390,204.235 265.200,204.034 265.200 C 203.833 265.200,203.542 266.550,203.387 268.200 C 203.233 269.850,202.947 271.200,202.753 271.200 C 202.559 271.200,202.400 271.920,202.400 272.800 C 202.400 273.680,202.241 274.400,202.047 274.400 C 201.853 274.400,201.567 275.750,201.413 277.400 C 201.258 279.050,200.967 280.400,200.766 280.400 C 200.565 280.400,200.400 281.120,200.400 282.000 C 200.400 282.880,200.246 283.600,200.057 283.600 C 199.869 283.600,199.594 284.905,199.446 286.500 C 199.299 288.095,199.003 289.460,198.789 289.533 C 198.575 289.607,198.400 290.462,198.400 291.433 C 198.400 292.405,198.241 293.200,198.047 293.200 C 197.853 293.200,197.567 294.550,197.413 296.200 C 197.258 297.850,196.967 299.200,196.766 299.200 C 196.565 299.200,196.400 299.920,196.400 300.800 C 196.400 301.680,196.236 302.400,196.036 302.400 C 195.836 302.400,195.544 303.930,195.389 305.800 C 195.233 307.670,194.947 309.200,194.753 309.200 C 194.559 309.200,194.400 309.729,194.400 310.376 C 194.400 311.023,194.239 311.652,194.042 311.774 C 193.845 311.896,193.556 313.437,193.400 315.198 C 193.244 316.959,192.955 318.400,192.758 318.400 C 192.561 318.400,192.400 319.120,192.400 320.000 L 192.400 321.600 207.429 321.600 C 224.059 321.600,223.600 321.673,223.600 319.029 C 223.600 318.243,223.764 317.600,223.964 317.600 C 224.164 317.600,224.456 316.070,224.611 314.200 C 224.767 312.330,225.053 310.800,225.247 310.800 C 225.441 310.800,225.600 310.080,225.600 309.200 C 225.600 308.320,225.764 307.600,225.964 307.600 C 226.164 307.600,226.456 306.070,226.611 304.200 C 226.767 302.330,227.053 300.800,227.247 300.800 C 227.441 300.800,227.600 300.080,227.600 299.200 C 227.600 298.320,227.764 297.600,227.964 297.600 C 228.164 297.600,228.456 296.070,228.611 294.200 C 228.767 292.330,229.053 290.800,229.247 290.800 C 229.441 290.800,229.600 290.080,229.600 289.200 C 229.600 288.320,229.764 287.600,229.964 287.600 C 230.164 287.600,230.456 286.070,230.611 284.200 C 230.767 282.330,231.053 280.800,231.247 280.800 C 231.441 280.800,231.600 280.080,231.600 279.200 C 231.600 278.320,231.764 277.600,231.964 277.600 C 232.164 277.600,232.456 276.070,232.611 274.200 C 232.767 272.330,233.053 270.800,233.247 270.800 C 233.441 270.800,233.600 270.080,233.600 269.200 C 233.600 268.320,233.764 267.600,233.964 267.600 C 234.164 267.600,234.465 266.025,234.633 264.100 C 235.010 259.761,235.502 260.915,235.560 266.276 C 235.582 268.298,235.780 270.064,236.000 270.200 C 236.220 270.336,236.400 272.057,236.400 274.024 C 236.400 275.991,236.559 277.600,236.754 277.600 C 236.948 277.600,237.239 281.200,237.400 285.600 C 237.561 290.000,237.852 293.600,238.046 293.600 C 238.241 293.600,238.400 295.220,238.400 297.200 C 238.400 299.180,238.559 300.800,238.754 300.800 C 238.948 300.800,239.239 304.400,239.400 308.800 C 239.561 313.200,239.852 316.800,240.046 316.800 C 240.241 316.800,240.400 317.880,240.400 319.200 L 240.400 321.600 257.000 321.600 L 273.600 321.600 273.600 320.000 C 273.600 319.120,273.754 318.400,273.943 318.400 C 274.131 318.400,274.406 317.099,274.554 315.509 C 274.702 313.919,274.997 312.443,275.211 312.229 C 275.425 312.015,275.600 311.156,275.600 310.320 C 275.600 309.484,275.761 308.800,275.958 308.800 C 276.155 308.800,276.444 307.360,276.600 305.600 C 276.756 303.840,277.045 302.400,277.242 302.400 C 277.439 302.400,277.600 301.770,277.600 301.000 C 277.600 300.230,277.764 299.600,277.964 299.600 C 278.164 299.600,278.456 298.070,278.611 296.200 C 278.767 294.330,279.053 292.800,279.247 292.800 C 279.441 292.800,279.600 292.271,279.600 291.624 C 279.600 290.977,279.761 290.348,279.958 290.226 C 280.155 290.104,280.444 288.563,280.600 286.802 C 280.756 285.041,281.045 283.600,281.242 283.600 C 281.439 283.600,281.600 282.880,281.600 282.000 C 281.600 281.120,281.765 280.400,281.966 280.400 C 282.167 280.400,282.458 279.050,282.613 277.400 C 282.767 275.750,283.053 274.400,283.247 274.400 C 283.441 274.400,283.600 273.605,283.600 272.633 C 283.600 271.662,283.775 270.807,283.989 270.733 C 284.203 270.660,284.499 269.295,284.646 267.700 C 284.794 266.105,285.069 264.800,285.257 264.800 C 285.446 264.800,285.600 264.080,285.600 263.200 C 285.600 262.320,285.765 261.600,285.966 261.600 C 286.167 261.600,286.458 260.250,286.613 258.600 C 286.767 256.950,287.053 255.600,287.247 255.600 C 287.441 255.600,287.600 254.880,287.600 254.000 C 287.600 253.120,287.754 252.400,287.943 252.400 C 288.131 252.400,288.406 251.095,288.554 249.500 C 288.701 247.905,288.997 246.540,289.211 246.467 C 289.425 246.393,289.600 245.538,289.600 244.567 C 289.600 243.595,289.759 242.800,289.953 242.800 C 290.147 242.800,290.433 241.450,290.587 239.800 C 290.742 238.150,291.033 236.800,291.234 236.800 C 291.435 236.800,291.600 236.080,291.600 235.200 C 291.600 234.320,291.764 233.600,291.964 233.600 C 292.164 233.600,292.456 232.070,292.611 230.200 C 292.767 228.330,293.053 226.800,293.247 226.800 C 293.441 226.800,293.600 226.271,293.600 225.624 C 293.600 224.977,293.761 224.348,293.958 224.226 C 294.155 224.104,294.444 222.563,294.600 220.802 C 294.756 219.041,295.045 217.600,295.242 217.600 C 295.439 217.600,295.600 216.981,295.600 216.224 C 295.600 215.467,295.765 214.745,295.966 214.621 C 296.167 214.496,296.459 213.046,296.613 211.397 C 296.768 209.749,297.053 208.400,297.247 208.400 C 297.441 208.400,297.600 207.605,297.600 206.633 C 297.600 205.662,297.775 204.807,297.989 204.733 C 298.203 204.660,298.499 203.295,298.646 201.700 C 298.794 200.105,299.069 198.800,299.257 198.800 C 299.446 198.800,299.600 198.080,299.600 197.200 C 299.600 196.320,299.765 195.600,299.966 195.600 C 300.167 195.600,300.458 194.250,300.613 192.600 C 300.767 190.950,301.053 189.600,301.247 189.600 C 301.441 189.600,301.600 188.880,301.600 188.000 C 301.600 187.120,301.780 186.400,302.000 186.400 C 302.220 186.400,302.400 185.680,302.400 184.800 L 302.400 183.200 286.800 183.200 L 271.200 183.200 271.200 184.800 C 271.200 185.680,271.020 186.400,270.800 186.400 C 270.580 186.400,270.400 187.109,270.400 187.976 C 270.400 188.843,270.239 189.652,270.042 189.774 C 269.845 189.896,269.556 191.437,269.400 193.198 C 269.244 194.959,268.955 196.400,268.758 196.400 C 268.561 196.400,268.400 197.109,268.400 197.976 C 268.400 198.843,268.239 199.652,268.042 199.774 C 267.845 199.896,267.556 201.437,267.400 203.198 C 267.244 204.959,266.955 206.400,266.758 206.400 C 266.561 206.400,266.400 207.109,266.400 207.976 C 266.400 208.843,266.239 209.652,266.042 209.774 C 265.845 209.896,265.556 211.437,265.400 213.198 C 265.244 214.959,264.955 216.400,264.758 216.400 C 264.561 216.400,264.400 217.109,264.400 217.976 C 264.400 218.843,264.239 219.652,264.042 219.774 C 263.845 219.896,263.556 221.437,263.400 223.198 C 263.244 224.959,262.955 226.400,262.758 226.400 C 262.561 226.400,262.400 227.109,262.400 227.976 C 262.400 228.843,262.233 229.656,262.030 229.782 C 261.826 229.908,261.533 231.628,261.378 233.605 C 261.001 238.425,260.400 238.176,260.400 233.200 C 260.400 230.800,260.240 229.200,260.000 229.200 C 259.755 229.200,259.600 227.267,259.600 224.200 C 259.600 221.450,259.443 219.200,259.251 219.200 C 259.059 219.200,258.769 214.520,258.608 208.800 C 258.446 203.080,258.153 198.400,257.957 198.400 C 257.761 198.400,257.600 195.970,257.600 193.000 C 257.600 189.667,257.447 187.600,257.200 187.600 C 256.980 187.600,256.800 186.610,256.800 185.400 L 256.800 183.200 239.267 183.200 C 229.623 183.200,221.613 183.320,221.467 183.467 M314.400 184.800 C 314.400 185.680,314.558 186.400,314.752 186.400 C 314.945 186.400,315.234 188.831,315.393 191.802 C 315.552 194.773,315.844 197.303,316.041 197.425 C 316.238 197.547,316.400 198.807,316.400 200.224 C 316.400 201.641,316.558 202.800,316.752 202.800 C 316.945 202.800,317.234 205.230,317.393 208.200 C 317.552 211.170,317.844 213.600,318.041 213.600 C 318.238 213.600,318.400 214.770,318.400 216.200 C 318.400 217.630,318.558 218.800,318.752 218.800 C 318.945 218.800,319.234 221.230,319.393 224.200 C 319.552 227.170,319.844 229.600,320.041 229.600 C 320.238 229.600,320.400 230.770,320.400 232.200 C 320.400 233.630,320.558 234.800,320.752 234.800 C 320.945 234.800,321.234 237.230,321.393 240.200 C 321.552 243.170,321.844 245.600,322.041 245.600 C 322.238 245.600,322.400 246.860,322.400 248.400 C 322.400 249.964,322.227 251.200,322.008 251.200 C 321.792 251.200,321.502 251.650,321.364 252.200 C 321.226 252.750,320.953 253.200,320.757 253.200 C 320.560 253.200,320.400 253.470,320.400 253.800 C 320.400 254.130,320.234 254.400,320.032 254.400 C 319.829 254.400,319.535 254.985,319.378 255.700 C 319.221 256.415,318.771 257.225,318.378 257.500 C 317.985 257.776,317.545 258.541,317.400 259.200 C 317.255 259.860,316.971 260.400,316.768 260.400 C 316.566 260.400,316.400 260.670,316.400 261.000 C 316.400 261.330,316.220 261.600,316.000 261.600 C 315.780 261.600,315.600 261.938,315.600 262.351 C 315.600 262.764,315.330 263.326,315.000 263.600 C 314.670 263.874,314.400 264.346,314.400 264.649 C 314.400 264.952,314.234 265.200,314.032 265.200 C 313.829 265.200,313.545 265.740,313.400 266.400 C 313.255 267.060,312.971 267.600,312.768 267.600 C 312.566 267.600,312.400 267.960,312.400 268.400 C 312.400 268.840,312.223 269.200,312.008 269.200 C 311.792 269.200,311.502 269.650,311.364 270.200 C 311.226 270.750,310.953 271.200,310.757 271.200 C 310.560 271.200,310.400 271.470,310.400 271.800 C 310.400 272.130,310.234 272.400,310.032 272.400 C 309.829 272.400,309.535 272.985,309.378 273.700 C 309.221 274.415,308.771 275.225,308.378 275.500 C 307.985 275.776,307.545 276.541,307.400 277.200 C 307.255 277.860,306.971 278.400,306.768 278.400 C 306.566 278.400,306.400 278.670,306.400 279.000 C 306.400 279.330,306.220 279.600,306.000 279.600 C 305.780 279.600,305.600 279.966,305.600 280.413 C 305.600 280.859,305.330 281.329,305.000 281.455 C 304.670 281.582,304.400 282.026,304.400 282.443 C 304.400 282.859,304.234 283.200,304.032 283.200 C 303.829 283.200,303.545 283.740,303.400 284.400 C 303.255 285.060,302.971 285.600,302.768 285.600 C 302.566 285.600,302.400 285.941,302.400 286.357 C 302.400 286.774,302.130 287.218,301.800 287.345 C 301.470 287.471,301.200 287.941,301.200 288.387 C 301.200 288.834,301.020 289.200,300.800 289.200 C 300.580 289.200,300.400 289.470,300.400 289.800 C 300.400 290.130,300.220 290.400,300.000 290.400 C 299.780 290.400,299.600 290.657,299.600 290.971 C 299.600 291.286,299.368 291.781,299.085 292.071 C 298.477 292.695,297.200 295.330,297.200 295.960 C 297.200 296.202,297.020 296.400,296.800 296.400 C 296.580 296.400,296.400 296.670,296.400 297.000 C 296.400 297.330,296.223 297.600,296.008 297.600 C 295.792 297.600,295.502 298.050,295.364 298.600 C 295.226 299.150,294.953 299.600,294.757 299.600 C 294.560 299.600,294.400 299.960,294.400 300.400 C 294.400 300.840,294.240 301.200,294.043 301.200 C 293.847 301.200,293.570 301.665,293.427 302.234 C 293.284 302.803,292.803 303.658,292.356 304.134 C 291.910 304.610,291.445 305.495,291.323 306.100 C 291.200 306.705,290.943 307.200,290.750 307.200 C 290.558 307.200,290.400 307.470,290.400 307.800 C 290.400 308.130,290.240 308.400,290.043 308.400 C 289.847 308.400,289.574 308.850,289.436 309.400 C 289.298 309.950,289.008 310.400,288.792 310.400 C 288.577 310.400,288.400 310.670,288.400 311.000 C 288.400 311.330,288.240 311.600,288.045 311.600 C 287.849 311.600,287.571 312.230,287.426 313.000 C 287.282 313.770,286.992 314.400,286.782 314.400 C 286.572 314.400,286.400 314.670,286.400 315.000 C 286.400 315.330,286.223 315.600,286.008 315.600 C 285.792 315.600,285.502 316.050,285.364 316.600 C 285.226 317.150,284.953 317.600,284.757 317.600 C 284.560 317.600,284.400 317.945,284.400 318.367 C 284.400 318.788,284.233 319.193,284.030 319.267 C 283.826 319.340,283.536 319.895,283.386 320.500 L 283.113 321.600 300.357 321.600 C 315.417 321.600,317.600 321.524,317.600 321.000 C 317.600 320.670,317.760 320.400,317.955 320.400 C 318.151 320.400,318.429 319.770,318.574 319.000 C 318.718 318.230,319.008 317.600,319.218 317.600 C 319.428 317.600,319.600 317.330,319.600 317.000 C 319.600 316.670,319.760 316.400,319.955 316.400 C 320.151 316.400,320.429 315.770,320.574 315.000 C 320.718 314.230,320.964 313.600,321.120 313.600 C 321.498 313.600,322.318 311.712,322.641 310.097 C 322.783 309.384,323.058 308.800,323.250 308.800 C 323.443 308.800,323.600 308.530,323.600 308.200 C 323.600 307.870,323.772 307.600,323.982 307.600 C 324.192 307.600,324.482 306.970,324.626 306.200 C 324.771 305.430,325.049 304.800,325.245 304.800 C 325.440 304.800,325.600 304.530,325.600 304.200 C 325.600 303.870,325.772 303.600,325.982 303.600 C 326.192 303.600,326.482 302.970,326.626 302.200 C 326.771 301.430,327.049 300.800,327.245 300.800 C 327.440 300.800,327.600 300.530,327.600 300.200 C 327.600 299.870,327.764 299.600,327.965 299.600 C 328.166 299.600,328.451 298.880,328.600 298.000 C 328.749 297.120,329.034 296.400,329.235 296.400 C 329.436 296.400,329.600 296.040,329.600 295.600 C 329.600 295.160,329.766 294.800,329.968 294.800 C 330.171 294.800,330.455 294.260,330.600 293.600 C 330.745 292.940,331.029 292.400,331.232 292.400 C 331.434 292.400,331.600 292.040,331.600 291.600 C 331.600 291.160,331.766 290.800,331.968 290.800 C 332.171 290.800,332.455 290.260,332.600 289.600 C 332.745 288.940,333.029 288.400,333.232 288.400 C 333.434 288.400,333.600 288.040,333.600 287.600 C 333.600 287.160,333.766 286.800,333.968 286.800 C 334.171 286.800,334.455 286.262,334.599 285.605 C 335.020 283.689,335.600 283.788,335.600 285.776 C 335.600 286.779,335.780 287.600,336.000 287.600 C 336.240 287.600,336.400 289.200,336.400 291.600 C 336.400 293.800,336.558 295.600,336.751 295.600 C 336.944 295.600,337.234 299.292,337.395 303.804 C 337.556 308.316,337.848 312.106,338.044 312.227 C 338.240 312.348,338.400 314.237,338.400 316.424 C 338.400 318.808,338.560 320.400,338.800 320.400 C 339.020 320.400,339.200 320.670,339.200 321.000 C 339.200 321.524,341.335 321.600,356.018 321.600 L 372.837 321.600 372.560 317.500 C 372.408 315.245,372.130 313.340,371.942 313.267 C 371.754 313.193,371.600 312.068,371.600 310.767 C 371.600 309.465,371.442 308.400,371.248 308.400 C 371.055 308.400,370.766 306.150,370.608 303.400 C 370.449 300.650,370.158 298.400,369.960 298.400 C 369.762 298.400,369.600 297.320,369.600 296.000 C 369.600 294.680,369.442 293.600,369.248 293.600 C 369.055 293.600,368.766 291.350,368.608 288.600 C 368.449 285.850,368.158 283.600,367.960 283.600 C 367.762 283.600,367.600 282.430,367.600 281.000 C 367.600 279.570,367.440 278.400,367.244 278.400 C 367.049 278.400,366.759 276.238,366.600 273.596 C 366.441 270.954,366.151 268.693,365.956 268.573 C 365.760 268.452,365.600 267.283,365.600 265.976 C 365.600 264.669,365.436 263.600,365.235 263.600 C 365.034 263.600,364.741 261.436,364.583 258.792 C 364.425 256.147,364.140 253.886,363.948 253.768 C 363.483 253.481,363.501 250.509,363.969 250.219 C 364.172 250.094,364.457 249.453,364.601 248.795 C 364.745 248.138,365.029 247.600,365.232 247.600 C 365.434 247.600,365.600 247.330,365.600 247.000 C 365.600 246.670,365.780 246.400,366.000 246.400 C 366.220 246.400,366.400 246.062,366.400 245.649 C 366.400 245.236,366.670 244.674,367.000 244.400 C 367.330 244.126,367.600 243.654,367.600 243.351 C 367.600 243.048,367.766 242.800,367.968 242.800 C 368.171 242.800,368.455 242.260,368.600 241.600 C 368.745 240.940,369.029 240.400,369.232 240.400 C 369.434 240.400,369.600 240.059,369.600 239.643 C 369.600 239.226,369.870 238.782,370.200 238.655 C 370.530 238.529,370.800 238.059,370.800 237.613 C 370.800 237.166,370.980 236.800,371.200 236.800 C 371.420 236.800,371.600 236.530,371.600 236.200 C 371.600 235.870,371.780 235.600,372.000 235.600 C 372.220 235.600,372.400 235.343,372.400 235.029 C 372.400 234.714,372.632 234.219,372.915 233.929 C 373.523 233.305,374.800 230.670,374.800 230.040 C 374.800 229.798,374.980 229.600,375.200 229.600 C 375.420 229.600,375.600 229.330,375.600 229.000 C 375.600 228.670,375.777 228.400,375.992 228.400 C 376.208 228.400,376.498 227.950,376.636 227.400 C 376.774 226.850,377.047 226.400,377.243 226.400 C 377.440 226.400,377.600 226.040,377.600 225.600 C 377.600 225.160,377.760 224.800,377.957 224.800 C 378.153 224.800,378.435 224.316,378.583 223.724 C 378.732 223.132,379.201 222.346,379.626 221.977 C 380.051 221.609,380.511 220.743,380.649 220.054 C 380.787 219.364,381.058 218.800,381.250 218.800 C 381.443 218.800,381.600 218.530,381.600 218.200 C 381.600 217.870,381.777 217.600,381.992 217.600 C 382.208 217.600,382.498 217.150,382.636 216.600 C 382.774 216.050,383.047 215.600,383.243 215.600 C 383.440 215.600,383.600 215.330,383.600 215.000 C 383.600 214.670,383.757 214.400,383.950 214.400 C 384.143 214.400,384.409 213.857,384.542 213.192 C 384.674 212.528,385.154 211.587,385.607 211.100 C 386.060 210.614,386.534 209.807,386.659 209.308 C 386.784 208.809,387.047 208.400,387.243 208.400 C 387.440 208.400,387.600 208.040,387.600 207.600 C 387.600 207.160,387.760 206.800,387.957 206.800 C 388.153 206.800,388.426 206.350,388.564 205.800 C 388.702 205.250,388.992 204.800,389.208 204.800 C 389.423 204.800,389.600 204.530,389.600 204.200 C 389.600 203.870,389.766 203.600,389.968 203.600 C 390.171 203.600,390.465 203.015,390.622 202.300 C 390.779 201.585,391.229 200.775,391.622 200.500 C 392.015 200.224,392.455 199.459,392.600 198.800 C 392.745 198.140,393.029 197.600,393.232 197.600 C 393.434 197.600,393.600 197.330,393.600 197.000 C 393.600 196.670,393.780 196.400,394.000 196.400 C 394.220 196.400,394.400 196.062,394.400 195.649 C 394.400 195.236,394.670 194.674,395.000 194.400 C 395.330 194.126,395.600 193.654,395.600 193.351 C 395.600 193.048,395.766 192.800,395.968 192.800 C 396.171 192.800,396.455 192.260,396.600 191.600 C 396.745 190.940,397.029 190.400,397.232 190.400 C 397.434 190.400,397.600 190.059,397.600 189.643 C 397.600 189.226,397.870 188.782,398.200 188.655 C 398.530 188.529,398.800 188.074,398.800 187.646 C 398.800 187.217,398.992 186.803,399.226 186.725 C 399.460 186.647,399.754 185.822,399.878 184.891 L 400.105 183.200 383.885 183.200 C 366.856 183.200,366.400 183.232,366.400 184.443 C 366.400 184.859,366.234 185.200,366.032 185.200 C 365.829 185.200,365.545 185.740,365.400 186.400 C 365.255 187.060,364.971 187.600,364.768 187.600 C 364.566 187.600,364.400 187.960,364.400 188.400 C 364.400 188.840,364.234 189.200,364.032 189.200 C 363.829 189.200,363.545 189.740,363.400 190.400 C 363.255 191.060,362.971 191.600,362.768 191.600 C 362.566 191.600,362.400 191.960,362.400 192.400 C 362.400 192.840,362.234 193.200,362.032 193.200 C 361.829 193.200,361.545 193.740,361.400 194.400 C 361.255 195.060,360.971 195.600,360.768 195.600 C 360.566 195.600,360.394 195.915,360.387 196.300 C 360.380 196.685,360.110 197.349,359.787 197.776 C 359.464 198.204,359.200 198.969,359.200 199.476 C 359.200 199.984,359.020 200.400,358.800 200.400 C 358.580 200.400,358.400 200.670,358.400 201.000 C 358.400 201.330,358.240 201.600,358.045 201.600 C 357.849 201.600,357.571 202.230,357.426 203.000 C 357.282 203.770,356.992 204.400,356.782 204.400 C 356.572 204.400,356.400 204.670,356.400 205.000 C 356.400 205.330,356.240 205.600,356.045 205.600 C 355.849 205.600,355.571 206.230,355.426 207.000 C 355.282 207.770,354.992 208.400,354.782 208.400 C 354.572 208.400,354.400 208.670,354.400 209.000 C 354.400 209.330,354.240 209.600,354.045 209.600 C 353.849 209.600,353.571 210.230,353.426 211.000 C 353.282 211.770,352.992 212.400,352.782 212.400 C 352.572 212.400,352.400 212.670,352.400 213.000 C 352.400 213.330,352.240 213.600,352.045 213.600 C 351.849 213.600,351.571 214.230,351.426 215.000 C 350.918 217.707,350.400 216.394,350.400 212.400 C 350.400 210.000,350.240 208.400,350.000 208.400 C 349.753 208.400,349.600 206.333,349.600 203.000 C 349.600 199.667,349.447 197.600,349.200 197.600 C 348.959 197.600,348.800 195.953,348.800 193.460 C 348.800 191.184,348.684 187.944,348.541 186.260 L 348.283 183.200 331.341 183.200 L 314.400 183.200 314.400 184.800 " stroke="none" fill="#040404" fill-rule="evenodd"></path><path id="path3" d="" stroke="none" fill="#408480" fill-rule="evenodd"></path><path id="path4" d="" stroke="none" fill="#400484" fill-rule="evenodd"></path></g></svg>